<svg width="49" height="49" viewBox="0 0 49 49" fill="none" xmlns="http://www.w3.org/2000/svg">
<g clip-path="url(#clip0_401_138)">
<path d="M27.5749 24.1554C27.5749 31.6968 21.5139 37.8103 14.0377 37.8103C6.56146 37.8103 0.5 31.6955 0.5 24.1554C0.5 16.6153 6.561 10.5 14.0377 10.5C21.5143 10.5 27.5749 16.614 27.5749 24.1554Z" fill="#F5F5F5"/>
<path d="M42.4254 24.1554C42.4254 31.254 39.3949 37.0109 35.6565 37.0109C31.9182 37.0109 28.8877 31.254 28.8877 24.1554C28.8877 17.0568 31.9177 11.2999 35.6561 11.2999C39.3944 11.2999 42.4249 17.0549 42.4249 24.1554" fill="#F5F5F5"/>
<path d="M48.5 24.1554C48.5 30.514 47.4344 35.6719 46.1194 35.6719C44.8045 35.6719 43.7393 30.5154 43.7393 24.1554C43.7393 17.7954 44.8049 12.6389 46.1194 12.6389C47.4339 12.6389 48.5 17.7949 48.5 24.1554Z" fill="#F5F5F5"/>
</g>
<defs>
<clipPath id="clip0_401_138">
<rect width="48" height="48" fill="white" transform="translate(0.5 0.5)"/>
</clipPath>
</defs>
</svg>
