<svg width="48" height="49" viewBox="0 0 48 49" fill="none" xmlns="http://www.w3.org/2000/svg">
<g clip-path="url(#clip0_401_134)">
<path d="M16.0001 48.5C20.4162 48.5 24.0002 44.9159 24.0002 40.4999V32.4999H16.0001C11.5841 32.4999 8 36.0839 8 40.4999C8 44.9159 11.5841 48.5 16.0001 48.5Z" fill="#0ACF83"/>
<path d="M8 24.5C8 20.084 11.5841 16.4999 16.0001 16.4999H24.0002V32.4998H16.0001C11.5841 32.5 8 28.916 8 24.5Z" fill="#A259FF"/>
<path d="M8 8.50006C8 4.08406 11.5841 0.5 16.0001 0.5H24.0002V16.4999H16.0001C11.5841 16.4999 8 12.9161 8 8.50006Z" fill="#F24E1E"/>
<path d="M24 0.5H32.0001C36.4162 0.5 40.0002 4.08406 40.0002 8.50006C40.0002 12.9161 36.4162 16.4999 32.0001 16.4999H24V0.5Z" fill="#FF7262"/>
<path d="M40.0002 24.5C40.0002 28.916 36.4162 32.5 32.0001 32.5C27.5841 32.5 24 28.916 24 24.5C24 20.084 27.5841 16.4999 32.0001 16.4999C36.4162 16.4999 40.0002 20.084 40.0002 24.5Z" fill="#1ABCFE"/>
</g>
<defs>
<clipPath id="clip0_401_134">
<rect width="48" height="48" fill="white" transform="translate(0 0.5)"/>
</clipPath>
</defs>
</svg>
