<svg width="48" height="49" viewBox="0 0 48 49" fill="none" xmlns="http://www.w3.org/2000/svg">
<g clip-path="url(#clip0_401_128)">
<path fill-rule="evenodd" clip-rule="evenodd" d="M24.0003 1.5C18.3027 1.50296 12.792 3.52092 8.45349 7.19305C4.11497 10.8652 1.23156 15.952 0.318845 21.544C-0.593873 27.136 0.523609 32.8684 3.4715 37.7164C6.41938 42.5643 11.0054 46.2115 16.4096 48.0059C17.6019 48.2272 18.0509 47.4883 18.0509 46.86C18.0509 46.2317 18.0271 44.41 18.0191 42.4184C11.3425 43.8608 9.93173 39.601 9.93173 39.601C8.8428 36.8349 7.26903 36.1078 7.26903 36.1078C5.09119 34.6299 7.43198 34.6576 7.43198 34.6576C9.8443 34.8275 11.1121 37.1194 11.1121 37.1194C13.2502 40.7667 16.7275 39.7116 18.0947 39.0952C18.3093 37.5501 18.9332 36.499 19.6208 35.9023C14.2874 35.3017 8.68383 33.2548 8.68383 24.1108C8.65078 21.7394 9.5358 19.4461 11.1558 17.7054C10.9094 17.1047 10.0867 14.6785 11.3902 11.3829C11.3902 11.3829 13.4052 10.7427 17.9914 13.8289C21.9251 12.7592 26.0755 12.7592 30.0092 13.8289C34.5914 10.7427 36.6024 11.3829 36.6024 11.3829C37.9099 14.6706 37.0872 17.0968 36.8408 17.7054C38.4659 19.4464 39.3528 21.7437 39.3167 24.1187C39.3167 33.2824 33.7012 35.3017 28.3599 35.8905C29.2184 36.6334 29.9854 38.0836 29.9854 40.3122C29.9854 43.5051 29.9576 46.0736 29.9576 46.86C29.9576 47.4962 30.3907 48.2391 31.6068 48.0059C37.0117 46.2113 41.5982 42.5634 44.546 37.7147C47.4938 32.8659 48.6107 27.1326 47.697 21.5401C46.7832 15.9476 43.8984 10.8607 39.5584 7.18921C35.2185 3.51771 29.7064 1.50108 24.0082 1.5H24.0003Z" fill="#582879"/>
<path d="M9.08912 35.764C9.03745 35.8826 8.84669 35.9181 8.6917 35.8351C8.53671 35.7522 8.42147 35.598 8.4771 35.4755C8.53274 35.353 8.71953 35.3214 8.87452 35.4044C9.02951 35.4874 9.14873 35.6455 9.08912 35.764Z" fill="#582879"/>
<path d="M10.0625 36.8428C9.98016 36.884 9.88599 36.8955 9.7961 36.8753C9.7062 36.8551 9.62616 36.8045 9.56967 36.7321C9.41467 36.5662 9.38286 36.337 9.50209 36.2342C9.62131 36.1315 9.83593 36.1789 9.99093 36.3449C10.1459 36.5108 10.1817 36.74 10.0625 36.8428Z" fill="#582879"/>
<path d="M11.0087 38.214C10.8617 38.3167 10.6113 38.214 10.4722 38.0085C10.4337 37.9716 10.4032 37.9274 10.3823 37.8785C10.3614 37.8297 10.3506 37.7771 10.3506 37.724C10.3506 37.6709 10.3614 37.6183 10.3823 37.5694C10.4032 37.5205 10.4337 37.4763 10.4722 37.4395C10.6193 37.3407 10.8696 37.4395 11.0087 37.641C11.1478 37.8425 11.1518 38.1112 11.0087 38.214Z" fill="#582879"/>
<path d="M12.2922 39.5417C12.1611 39.6879 11.8948 39.6484 11.6762 39.4508C11.4577 39.2532 11.406 38.9845 11.5371 38.8423C11.6683 38.7 11.9345 38.7395 12.1611 38.9331C12.3876 39.1268 12.4313 39.3994 12.2922 39.5417Z" fill="#582879"/>
<path d="M14.0923 40.3162C14.0327 40.5019 13.7625 40.5849 13.4922 40.5059C13.222 40.4268 13.0432 40.2055 13.0948 40.0159C13.1465 39.8262 13.4207 39.7393 13.6949 39.8262C13.9691 39.9131 14.144 40.1226 14.0923 40.3162Z" fill="#582879"/>
<path d="M16.0557 40.4505C16.0557 40.6442 15.8331 40.8101 15.547 40.8141C15.2608 40.818 15.0264 40.66 15.0264 40.4663C15.0264 40.2727 15.2489 40.1067 15.535 40.1028C15.8212 40.0988 16.0557 40.253 16.0557 40.4505Z" fill="#582879"/>
<path d="M17.8838 40.1463C17.9196 40.3399 17.7208 40.5414 17.4347 40.5888C17.1486 40.6363 16.8982 40.5217 16.8624 40.332C16.8267 40.1423 17.0333 39.9368 17.3115 39.8855C17.5897 39.8341 17.848 39.9526 17.8838 40.1463Z" fill="#582879"/>
</g>
<defs>
<clipPath id="clip0_401_128">
<rect width="48" height="48" fill="white" transform="translate(0 0.5)"/>
</clipPath>
</defs>
</svg>
