<svg width="48" height="49" viewBox="0 0 48 49" fill="none" xmlns="http://www.w3.org/2000/svg">
<g clip-path="url(#clip0_401_131)">
<path d="M44.4567 0.5H3.54333C2.60358 0.5 1.70232 0.873315 1.03782 1.53782C0.373315 2.20232 0 3.10358 0 4.04333V44.9567C0 45.8964 0.373315 46.7977 1.03782 47.4622C1.70232 48.1267 2.60358 48.5 3.54333 48.5H44.4567C45.3964 48.5 46.2977 48.1267 46.9622 47.4622C47.6267 46.7977 48 45.8964 48 44.9567V4.04333C48 3.10358 47.6267 2.20232 46.9622 1.53782C46.2977 0.873315 45.3964 0.5 44.4567 0.5ZM14.3067 41.39H7.09V18.4667H14.3067V41.39ZM10.6933 15.29C9.87473 15.2854 9.07583 15.0384 8.39747 14.5802C7.71911 14.122 7.19168 13.4731 6.88175 12.7154C6.57183 11.9577 6.4933 11.1252 6.65606 10.3229C6.81883 9.52063 7.2156 8.78455 7.79631 8.20756C8.37702 7.63057 9.11563 7.23853 9.91893 7.08092C10.7222 6.92331 11.5542 7.00719 12.3099 7.32197C13.0656 7.63675 13.7111 8.16833 14.1649 8.84962C14.6188 9.53092 14.8606 10.3314 14.86 11.15C14.8677 11.6981 14.765 12.2421 14.558 12.7496C14.351 13.2571 14.044 13.7178 13.6551 14.1041C13.2663 14.4905 12.8037 14.7946 12.2948 14.9983C11.786 15.202 11.2413 15.3012 10.6933 15.29ZM40.9067 41.41H33.6933V28.8867C33.6933 25.1933 32.1233 24.0533 30.0967 24.0533C27.9567 24.0533 25.8567 25.6667 25.8567 28.98V41.41H18.64V18.4833H25.58V21.66H25.6733C26.37 20.25 28.81 17.84 32.5333 17.84C36.56 17.84 40.91 20.23 40.91 27.23L40.9067 41.41Z" fill="#0A66C2"/>
</g>
<defs>
<clipPath id="clip0_401_131">
<rect width="48" height="48" fill="white" transform="translate(0 0.5)"/>
</clipPath>
</defs>
</svg>
