<?xml version="1.0" standalone="no"?>
<!DOCTYPE svg PUBLIC "-//W3C//DTD SVG 20010904//EN"
 "http://www.w3.org/TR/2001/REC-SVG-20010904/DTD/svg10.dtd">
<svg version="1.0" xmlns="http://www.w3.org/2000/svg"
 width="451.000000pt" height="430.000000pt" viewBox="0 0 451.000000 430.000000"
 preserveAspectRatio="xMidYMid meet">

<g transform="translate(0.000000,430.000000) scale(0.100000,-0.100000)"
fill="#000000" stroke="none">
<path d="M1687 3560 c-14 -11 -28 -20 -31 -20 -15 0 -436 -434 -452 -467 -18
-37 -19 -72 -19 -928 0 -970 -3 -918 55 -970 22 -20 38 -20 678 -23 361 -1
660 -6 664 -10 4 -4 0 -36 -8 -70 -16 -68 -9 -92 25 -92 16 1 121 65 154 94 9
9 18 15 20 14 8 -7 116 65 111 74 -4 7 -2 8 5 4 6 -4 24 2 40 13 34 24 58 26
80 8 36 -29 103 -68 96 -55 -3 7 -1 6 7 -2 25 -29 78 -61 89 -54 7 4 10 3 6
-2 -3 -5 11 -20 30 -33 19 -12 32 -17 27 -9 -4 7 5 1 20 -13 32 -32 74 -42 93
-23 11 11 5 47 -37 219 -27 114 -50 208 -50 209 0 2 26 29 57 62 32 32 51 50
43 39 -8 -11 9 2 37 29 29 28 49 54 46 59 -3 6 -1 7 5 3 11 -6 41 17 114 86
33 32 33 33 9 57 -14 14 -40 21 -108 26 -48 4 -106 9 -128 11 -22 3 -69 8
-105 12 l-65 7 -5 825 c-6 901 -5 885 -63 920 -31 19 -56 20 -723 20 -676 0
-692 0 -717 -20z m1463 -30 c6 -11 8 -20 6 -20 -3 0 -10 9 -16 20 -6 11 -8 20
-6 20 3 0 10 -9 16 -20z m-45 -54 c9 -36 0 -1471 -8 -1471 -5 0 -26 44 -46 98
-42 109 -59 132 -89 123 -23 -8 -48 -68 -36 -87 4 -7 3 -9 -4 -5 -6 3 -18 -13
-28 -41 -10 -27 -24 -59 -31 -73 -7 -14 -13 -33 -13 -42 0 -9 -5 -20 -11 -23
-6 -4 -8 -14 -5 -22 4 -9 2 -11 -6 -7 -7 5 -9 2 -5 -9 3 -9 3 -17 -1 -19 -4
-2 -16 -21 -27 -43 -18 -36 -24 -40 -60 -42 -70 -5 -359 -33 -382 -39 -16 -3
-23 -12 -23 -27 0 -26 52 -81 65 -70 4 5 5 3 2 -3 -4 -6 5 -22 18 -34 14 -13
25 -21 25 -17 0 4 22 -15 48 -41 26 -26 75 -72 109 -102 l61 -55 -24 -94 c-13
-51 -25 -95 -27 -97 -2 -2 -299 -4 -661 -4 -484 0 -662 3 -672 11 -12 10 -14
147 -12 876 l3 865 175 -1 c223 -1 275 7 312 48 l28 31 0 203 c0 111 3 212 6
224 l6 23 632 2 c368 2 640 -1 654 -6 12 -5 25 -19 27 -30z m-1395 -191 c0
-163 -3 -196 -16 -209 -13 -13 -46 -16 -204 -16 -106 0 -191 4 -195 9 -6 11
396 419 408 414 4 -2 7 -91 7 -198z m-447 -150 c-3 -9 -8 -14 -10 -11 -3 3 -2
9 2 15 9 16 15 13 8 -4z m1737 -1107 c26 -71 44 -115 61 -154 10 -23 21 -53
24 -67 12 -47 43 -64 130 -71 244 -18 265 -21 265 -34 0 -4 -31 -34 -70 -67
-38 -32 -67 -62 -64 -67 3 -5 0 -7 -8 -6 -7 2 -12 -4 -10 -12 2 -8 0 -12 -4
-8 -10 11 -35 -12 -27 -25 3 -5 1 -7 -5 -3 -6 3 -26 -9 -45 -27 l-35 -33 13
-69 c7 -39 23 -107 34 -152 21 -81 26 -123 15 -123 -7 0 -97 52 -104 60 -14
17 -178 110 -194 110 -26 0 -127 -60 -121 -71 4 -5 -2 -6 -11 -2 -13 5 -15 3
-9 -7 5 -8 4 -11 -3 -6 -12 7 -124 -62 -118 -73 2 -3 -11 -7 -30 -9 -31 -2
-34 0 -25 16 5 10 24 79 41 153 17 74 33 142 36 151 6 19 -17 44 -131 143
-120 105 -128 113 -122 128 4 10 31 16 94 21 237 19 244 20 265 46 10 13 17
29 14 37 -3 7 -2 13 3 13 4 0 29 54 55 120 27 66 54 120 61 120 7 0 18 -15 25
-32z m377 -463 c0 -8 -4 -12 -9 -9 -5 3 -6 10 -3 15 9 13 12 11 12 -6z"/>
<path d="M1590 2707 c0 -5 -4 -6 -9 -3 -17 11 -41 -6 -41 -30 0 -13 8 -28 18
-33 12 -6 169 -10 398 -11 394 0 444 4 444 40 0 21 -25 44 -40 35 -5 -3 -10
-3 -10 2 0 4 -171 8 -380 8 -209 0 -380 -4 -380 -8z"/>
<path d="M2513 2703 c-19 -7 -15 -47 5 -60 26 -16 208 -12 205 4 -2 7 4 10 12
7 17 -7 17 36 0 49 -10 7 -201 8 -222 0z"/>
<path d="M1551 2521 c-21 -16 -22 -20 -10 -40 l14 -21 452 0 c393 1 454 3 468
16 19 20 19 27 -3 47 -17 15 -63 17 -458 17 -409 0 -441 -2 -463 -19z"/>
<path d="M1548 2259 c-20 -25 -6 -56 27 -61 11 -2 238 -1 505 2 l485 5 1 25
c3 49 3 49 -516 50 -481 0 -485 0 -502 -21z"/>
<path d="M1550 2082 l-23 -19 21 -21 c22 -22 26 -22 400 -22 366 0 380 1 397
20 17 19 17 21 0 40 -17 19 -31 20 -395 20 -352 0 -379 -1 -400 -18z"/>
<path d="M1379 1477 c-10 -8 -16 -31 -18 -72 -2 -51 1 -62 18 -73 17 -10 25
-10 41 0 27 17 29 124 3 144 -22 16 -24 16 -44 1z"/>
<path d="M1596 1477 c-25 -18 -19 -135 7 -151 44 -27 78 89 41 142 -18 25 -24
27 -48 9z"/>
<path d="M1812 1475 c-8 -10 -12 -37 -10 -78 3 -52 6 -62 20 -61 10 1 15 -3
12 -8 -4 -6 -1 -9 7 -6 37 12 52 106 23 146 -17 25 -34 27 -52 7z"/>
<path d="M2025 1468 c-8 -13 -12 -24 -8 -25 5 -2 6 -25 5 -52 -3 -42 -1 -51
17 -61 32 -17 49 7 52 73 3 80 -31 114 -66 65z"/>
<path d="M2251 1481 c-7 -5 -10 -14 -7 -20 4 -6 2 -11 -5 -11 -17 0 -6 -109
12 -121 20 -12 25 -11 44 7 12 12 15 32 13 73 -3 75 -19 96 -57 72z"/>
<path d="M2467 1472 c-40 -44 -4 -173 40 -146 26 16 31 133 7 151 -23 17 -28
16 -47 -5z"/>
</g>
</svg>
