<svg version="1.1" id="Layer_1" xmlns="http://www.w3.org/2000/svg" xmlns:xlink="http://www.w3.org/1999/xlink" x="0px" y="0px"
	 width="100%" viewBox="0 0 451 430" enable-background="new 0 0 451 430" xml:space="preserve">
<path fill="#FFFFFF" opacity="1.000000" stroke="none" 
	d="
M244.000000,431.000000 
	C162.689590,431.000000 81.879181,431.000000 1.034386,431.000000 
	C1.034386,287.730255 1.034386,144.460480 1.034386,1.095360 
	C151.227066,1.095360 301.454224,1.095360 451.840698,1.095360 
	C451.840698,144.333191 451.840698,287.666565 451.840698,431.000000 
	C382.793793,431.000000 313.646912,431.000000 244.000000,431.000000 
M137.941284,316.958313 
	C154.876648,316.971161 171.812042,317.016357 188.747345,316.988922 
	C210.825745,316.953125 232.904037,316.859741 255.794693,316.997620 
	C256.584534,318.132812 258.059204,319.291687 258.020935,320.398285 
	C257.942535,322.665131 256.629974,324.901947 256.619568,327.154816 
	C256.609894,329.249329 257.060303,331.943054 258.403076,333.234375 
	C259.280975,334.078613 262.441345,333.445435 264.003387,332.511078 
	C268.366638,329.901245 272.299835,326.576355 276.644562,323.930725 
	C282.222748,320.533997 288.152740,317.712006 293.705048,314.276886 
	C297.016510,312.228088 299.517273,311.806305 303.058197,314.217010 
	C311.854797,320.205811 320.940277,325.792114 330.119843,331.182159 
	C332.598114,332.637329 335.826721,332.814606 338.710907,333.578461 
	C338.980469,330.460571 339.989929,327.190918 339.387054,324.251984 
	C337.184692,313.515350 334.615234,302.843781 331.808655,292.247162 
	C330.906860,288.842102 332.075958,287.121857 334.449890,285.071808 
	C343.139679,277.567444 351.750092,269.962128 360.136902,262.123657 
	C361.842926,260.529175 362.448120,257.756866 363.560791,255.527557 
	C361.175873,254.412003 358.874512,252.596664 356.391785,252.300217 
	C344.708344,250.905167 332.975128,249.926865 320.969513,248.771927 
	C320.877197,247.011566 320.734619,245.555969 320.734039,244.100311 
	C320.713593,193.457840 320.706512,142.815384 320.697418,92.172920 
	C320.697052,90.173965 320.813110,88.166855 320.674835,86.177444 
	C320.030396,76.904785 314.820557,72.058716 305.544434,72.057419 
	C263.397736,72.051506 221.250992,72.087440 179.104416,72.017311 
	C173.326645,72.007698 168.252975,73.487892 164.109497,77.563843 
	C152.124374,89.353668 140.350403,101.364510 128.155579,112.932312 
	C121.362457,119.376137 118.532959,127.025742 118.546188,136.109924 
	C118.587181,164.263153 118.573761,192.416473 118.610954,220.569702 
	C118.612900,222.046082 118.887283,223.522095 118.927109,225.493225 
	C118.960754,225.658752 118.994400,225.824280 118.876793,226.918350 
	C118.920120,250.612701 118.963448,274.307037 118.706306,298.638763 
	C118.774879,312.437897 124.077034,317.702789 137.941284,316.958313 
z"/>
<path fill="#9073A0" opacity="1.000000" stroke="none" 
	d="
M119.034828,224.998276 
	C118.887283,223.522095 118.612900,222.046082 118.610954,220.569702 
	C118.573761,192.416473 118.587181,164.263153 118.546188,136.109924 
	C118.532959,127.025742 121.362457,119.376137 128.155579,112.932312 
	C140.350403,101.364510 152.124374,89.353668 164.109497,77.563843 
	C168.252975,73.487892 173.326645,72.007698 179.104416,72.017311 
	C221.250992,72.087440 263.397736,72.051506 305.544434,72.057419 
	C314.820557,72.058716 320.030396,76.904785 320.674835,86.177444 
	C320.813110,88.166855 320.697052,90.173965 320.697418,92.172920 
	C320.706512,142.815384 320.713593,193.457840 320.734039,244.100311 
	C320.734619,245.555969 320.877197,247.011566 320.969513,248.771927 
	C332.975128,249.926865 344.708344,250.905167 356.391785,252.300217 
	C358.874512,252.596664 361.175873,254.412003 363.560791,255.527557 
	C362.448120,257.756866 361.842926,260.529175 360.136902,262.123657 
	C351.750092,269.962128 343.139679,277.567444 334.449890,285.071808 
	C332.075958,287.121857 330.906860,288.842102 331.808655,292.247162 
	C334.615234,302.843781 337.184692,313.515350 339.387054,324.251984 
	C339.989929,327.190918 338.980469,330.460571 338.710907,333.578461 
	C335.826721,332.814606 332.598114,332.637329 330.119843,331.182159 
	C320.940277,325.792114 311.854797,320.205811 303.058197,314.217010 
	C299.517273,311.806305 297.016510,312.228088 293.705048,314.276886 
	C288.152740,317.712006 282.222748,320.533997 276.644562,323.930725 
	C272.299835,326.576355 268.366638,329.901245 264.003387,332.511078 
	C262.441345,333.445435 259.280975,334.078613 258.403076,333.234375 
	C257.060303,331.943054 256.609894,329.249329 256.619568,327.154816 
	C256.629974,324.901947 257.942535,322.665131 258.020935,320.398285 
	C258.059204,319.291687 256.584534,318.132812 255.391296,316.595825 
	C254.992523,315.795593 254.997177,315.397186 255.400589,315.000000 
	C257.570190,315.267731 259.341034,315.534271 260.752380,315.746735 
	C262.123108,314.217987 263.258972,312.951141 265.009521,310.998779 
	C260.724396,310.998779 257.007904,310.998749 253.291428,310.998749 
	C234.822189,310.998749 216.352570,311.048309 197.884323,310.912933 
	C196.251663,310.900970 194.627853,309.682007 193.468552,309.016083 
	C213.198639,309.006927 232.460175,309.027466 251.721436,308.966187 
	C253.465942,308.960632 255.208771,308.428162 257.302795,308.077972 
	C258.120575,307.939697 258.587982,307.863831 259.039307,307.873932 
	C259.023224,307.959869 258.982758,308.130005 259.154877,308.342529 
	C259.878448,308.326843 260.429871,308.098602 261.076782,307.547974 
	C261.688293,305.986389 262.204315,304.747192 262.820251,303.857361 
	C263.299316,304.638275 263.678467,305.069733 264.057617,305.501221 
	C264.317017,305.169220 264.576447,304.837189 264.835846,304.505188 
	C264.162231,303.998840 263.488617,303.492493 262.820221,302.579346 
	C263.472473,299.403473 264.119507,296.634399 265.077332,294.099121 
	C266.073608,296.461212 266.759094,298.589508 267.444611,300.717834 
	C267.961456,300.635345 268.478271,300.552856 268.995117,300.470367 
	C268.995117,297.647736 268.995117,294.825073 269.002930,291.648163 
	C270.647217,288.862976 268.815674,286.946167 268.387634,284.702484 
	C267.500854,280.053833 265.293365,277.763947 260.798218,276.853241 
	C257.060577,276.095978 255.473679,272.384796 257.321594,269.098999 
	C262.136200,273.139709 266.876007,276.810608 271.054443,281.036591 
	C272.942841,282.946442 275.168030,286.243896 274.742554,288.424500 
	C272.853821,298.104614 270.059875,307.608154 267.280975,317.140564 
	C266.609192,317.224548 266.249725,317.343506 265.890259,317.462463 
	C266.390472,317.644714 266.890656,317.826965 267.558411,318.239929 
	C268.649323,318.520203 269.803650,318.951752 270.457886,318.556244 
	C274.133057,316.334259 277.602631,313.768341 281.303101,311.593140 
	C287.121002,308.173401 293.066681,304.971008 299.295105,301.815430 
	C308.571075,307.433472 317.510162,312.912659 326.878296,318.654846 
	C326.964996,317.372772 327.346222,315.978088 327.098511,314.705841 
	C325.556030,306.783417 324.193054,298.802368 322.103302,291.019928 
	C321.028931,287.018982 321.823273,284.323303 324.762482,281.798065 
	C328.412170,278.662415 331.998413,275.452301 335.586365,272.245605 
	C339.544830,268.707764 343.474182,265.137268 348.241821,260.836243 
	C345.724121,260.342834 344.650909,260.045166 343.558594,259.932190 
	C334.499847,258.995148 325.450104,257.916168 316.369843,257.271088 
	C313.028534,257.033752 311.420105,255.648651 310.152618,252.725571 
	C306.676453,244.708923 302.916260,236.815445 299.201691,228.545486 
	C297.272675,224.567093 296.604980,227.985870 296.142914,228.916916 
	C294.319031,232.591782 292.757782,236.397003 291.064270,239.753815 
	C290.300903,237.872574 289.572357,236.391388 288.730011,234.678864 
	C286.551697,238.078156 284.997284,240.503830 283.468292,242.889847 
	C286.292389,244.211624 286.292389,244.211624 291.116821,240.481567 
	C289.602081,245.042145 288.350494,249.354279 286.417847,253.335800 
	C285.623871,254.971512 283.480530,256.751404 281.747040,256.991180 
	C274.872955,257.941925 267.918213,258.309753 261.093842,258.510437 
	C264.016296,257.748779 266.875763,257.539368 269.645782,256.926117 
	C271.217804,256.578125 272.643433,255.568558 274.134979,254.856949 
	C273.909088,254.442566 273.683197,254.028183 273.457306,253.613800 
	C265.503937,253.613800 257.550598,253.613800 249.745026,253.613800 
	C252.321365,255.532074 254.667313,257.278809 256.708649,259.259857 
	C254.016068,259.700256 251.628098,259.906342 248.876556,259.958130 
	C247.162811,259.782379 245.805069,259.693176 244.473907,259.841736 
	C244.337204,259.857025 244.359177,261.293945 244.307526,262.071198 
	C245.634384,262.150452 246.960617,262.256012 248.288620,262.288452 
	C248.583176,262.295685 248.884018,262.044983 249.451965,262.105927 
	C251.511581,264.143921 253.301193,265.988983 254.940506,268.168213 
	C253.441635,269.702576 252.093048,270.902802 250.593445,272.237427 
	C252.183365,273.395752 253.990692,274.712494 255.872757,276.083649 
	C255.075089,276.800140 254.598969,277.227783 253.819427,277.551971 
	C249.031891,273.298706 244.547760,269.148956 240.388931,264.995544 
	C241.347031,264.677185 241.979813,264.362427 242.612579,264.047699 
	C242.496948,263.792633 242.381302,263.537598 242.265671,263.282562 
	C241.448898,263.551697 240.632141,263.820862 239.564453,263.981750 
	C238.872543,263.558594 238.431534,263.243713 237.958405,262.584869 
	C238.354568,260.495575 233.963211,258.697266 238.054016,257.350128 
	C239.482803,258.156830 240.841583,258.604889 242.200363,259.052917 
	C242.402252,258.353729 242.604141,257.654541 242.806046,256.955322 
	C241.199326,256.638123 239.592590,256.320923 237.724594,255.790848 
	C237.303543,254.703445 237.143768,253.828918 237.237686,252.762482 
	C240.651764,252.217987 243.812149,251.865402 247.297943,251.696320 
	C256.132904,251.219284 264.657715,250.706253 273.144714,249.827744 
	C276.685455,249.461212 279.259369,247.809662 280.703949,243.842133 
	C284.505554,233.401108 288.806519,223.131927 293.243927,212.940292 
	C294.189423,210.768723 296.556976,209.216309 298.269409,207.378647 
	C299.986664,209.168167 302.246063,210.684448 303.313080,212.801651 
	C305.870544,217.876480 307.867645,223.233719 310.090912,228.476974 
	C310.392090,228.388138 310.693268,228.299301 310.994446,228.210449 
	C310.994446,223.140030 310.994446,218.069595 311.053711,212.601318 
	C311.074219,211.133804 311.035400,210.064117 311.067230,208.532196 
	C311.088654,203.045715 311.039429,198.021484 311.047424,192.570587 
	C311.063812,190.424759 311.022949,188.705597 311.058502,186.524200 
	C311.152496,164.651520 311.204712,143.241013 311.174561,121.830605 
	C311.156799,109.223366 311.008331,96.616310 310.859955,83.624077 
	C309.134338,82.433403 307.508148,81.057549 305.792389,80.934914 
	C301.556366,80.632156 297.279266,80.904030 292.552063,80.882462 
	C283.718811,80.867302 275.352203,80.914597 266.527893,80.894135 
	C262.053070,80.865891 258.035889,80.905396 253.557434,80.883072 
	C249.059082,80.867340 245.021988,80.913437 240.520767,80.893753 
	C220.184616,80.827965 200.312576,80.827965 179.993683,80.827965 
	C179.993683,83.466309 179.993729,85.266197 179.993698,87.066093 
	C179.993500,98.042603 180.283173,109.031746 179.805878,119.987473 
	C179.673035,123.036308 177.269684,125.986221 175.559174,128.993774 
	C174.470245,129.909836 173.730103,130.813629 172.728363,131.757599 
	C172.293167,131.829391 172.119583,131.861023 171.643921,131.615112 
	C158.201782,131.227097 145.061661,131.075150 131.921722,131.090225 
	C130.940674,131.091339 129.960983,132.288452 128.800751,133.168488 
	C128.335754,133.930771 128.050674,134.454147 127.473282,134.983154 
	C126.790985,134.996170 126.401009,135.003555 126.013062,134.635010 
	C127.220596,128.701248 128.426086,123.143410 129.631592,117.585564 
	C129.084045,117.363190 128.536514,117.140816 127.988968,116.918434 
	C125.824966,120.640549 122.893509,124.137077 121.714378,128.148666 
	C120.552437,132.101791 121.145439,136.576004 121.014740,140.823029 
	C120.984253,141.813400 120.762642,143.374313 121.270691,143.714584 
	C125.739487,146.707611 123.838432,151.195969 123.919533,155.037415 
	C124.148079,165.862717 124.112030,176.698227 123.896881,187.524078 
	C123.857498,189.505905 121.957390,191.427948 121.830605,193.435333 
	C121.513290,198.459167 119.984039,204.495193 122.140862,208.321381 
	C125.086395,213.546783 123.490089,218.057556 123.339554,222.875137 
	C123.316360,223.617676 121.166374,224.293777 119.758682,224.999359 
	C119.517395,224.998093 119.034828,224.998276 119.034828,224.998276 
M138.680267,124.159203 
	C147.330414,124.158119 155.980804,124.195763 164.630615,124.142258 
	C170.333725,124.106987 171.763000,122.720390 171.804840,117.101631 
	C171.875458,107.620224 171.870117,98.137840 171.816986,88.656311 
	C171.808731,87.184601 171.377548,85.715256 170.945663,83.019714 
	C157.163010,96.900993 144.354691,109.800957 131.546387,122.700912 
	C131.841766,123.187828 132.137131,123.674744 132.432510,124.161659 
	C134.203476,124.161659 135.974457,124.161659 138.680267,124.159203 
M263.013031,326.915924 
	C265.610748,326.238739 268.208435,325.561554 270.806152,324.884369 
	C269.182251,323.206818 267.558350,321.529297 265.056335,318.944672 
	C264.060883,322.484192 263.537231,324.346161 263.013031,326.915924 
M280.939423,254.746780 
	C282.434448,252.653915 283.929443,250.561050 285.424469,248.468185 
	C284.884094,248.140137 284.343689,247.812088 283.803314,247.484039 
	C282.498291,249.682220 277.840027,249.929947 280.939423,254.746780 
M291.427429,233.701294 
	C291.701691,233.988983 291.975952,234.276688 292.250214,234.564392 
	C292.368927,234.450302 292.597412,234.243713 292.590454,234.235443 
	C292.334778,233.931931 292.057220,233.646820 291.427429,233.701294 
z"/>
<path fill="#8E6FA2" opacity="1.000000" stroke="none" 
	d="
M119.999969,225.000610 
	C121.166374,224.293777 123.316360,223.617676 123.339554,222.875137 
	C123.490089,218.057556 125.086395,213.546783 122.140862,208.321381 
	C119.984039,204.495193 121.513290,198.459167 121.830605,193.435333 
	C121.957390,191.427948 123.857498,189.505905 123.896881,187.524078 
	C124.112030,176.698227 124.148079,165.862717 123.919533,155.037415 
	C123.838432,151.195969 125.739487,146.707611 121.270691,143.714584 
	C120.762642,143.374313 120.984253,141.813400 121.014740,140.823029 
	C121.145439,136.576004 120.552437,132.101791 121.714378,128.148666 
	C122.893509,124.137077 125.824966,120.640549 127.988968,116.918434 
	C128.536514,117.140816 129.084045,117.363190 129.631592,117.585564 
	C128.426086,123.143410 127.220596,128.701248 126.008698,134.630234 
	C126.002296,135.001373 126.010887,135.010803 125.664139,135.012833 
	C124.708984,135.375290 124.100563,135.735718 123.492142,136.096146 
	C124.327385,136.397430 125.162621,136.698715 125.999634,137.445435 
	C126.332191,156.260590 126.662971,174.630325 126.598434,193.091095 
	C125.913651,198.144897 125.595688,203.106567 125.407661,208.073181 
	C125.396736,208.361710 126.439522,208.690140 126.995697,209.466858 
	C126.995384,214.957153 126.991310,219.980606 126.591232,225.094360 
	C125.798012,226.183395 125.057175,227.181061 125.054115,228.180984 
	C124.987671,249.917892 124.959793,271.655396 125.119667,293.391296 
	C125.128555,294.599426 126.821960,295.795135 127.811584,297.435913 
	C127.883713,300.259735 127.875549,302.644257 127.520569,305.061676 
	C121.283295,307.616272 121.374207,307.609619 120.914345,301.329041 
	C120.830177,300.179443 119.670166,299.108612 119.006775,298.001404 
	C118.963448,274.307037 118.920120,250.612701 119.167519,226.347809 
	C119.724388,225.578064 119.904961,225.319183 119.999969,225.000610 
z"/>
<path fill="#856F90" opacity="1.000000" stroke="none" 
	d="
M255.001831,314.998779 
	C254.997177,315.397186 254.992523,315.795593 254.985138,316.492584 
	C232.904037,316.859741 210.825745,316.953125 188.747345,316.988922 
	C171.812042,317.016357 154.876648,316.971161 137.475494,316.584167 
	C137.004898,315.803711 137.000076,315.397400 137.464508,314.993408 
	C176.956436,314.996735 215.979141,314.997742 255.001831,314.998779 
z"/>
<path fill="#9073A0" opacity="1.000000" stroke="none" 
	d="
M136.995255,314.991028 
	C137.000076,315.397400 137.004898,315.803711 137.012543,316.514587 
	C124.077034,317.702789 118.774879,312.437897 118.856537,298.320068 
	C119.670166,299.108612 120.830177,300.179443 120.914345,301.329041 
	C121.374207,307.609619 121.283295,307.616272 127.766251,305.187012 
	C128.527176,305.353119 128.695602,305.426727 128.949585,305.736023 
	C129.548691,306.374268 130.062241,306.776855 130.647156,307.394867 
	C130.718521,307.610291 130.863449,308.040314 130.601685,308.078674 
	C130.217621,308.344940 130.095352,308.572784 129.973083,308.800659 
	C130.107513,308.853638 130.241379,308.951263 130.376450,308.952942 
	C132.584213,308.980499 134.792130,308.995972 136.994247,309.366028 
	C136.412888,310.211060 135.853973,311.102661 135.258743,311.127594 
	C132.846298,311.228729 130.422684,311.063385 127.967484,310.712067 
	C127.625671,310.105835 127.319572,309.783875 127.013466,309.461914 
	C126.831436,309.671844 126.649406,309.881775 126.467377,310.091736 
	C126.977135,310.395691 127.486885,310.699646 127.884750,311.302979 
	C129.321289,312.733521 130.737686,314.189453 132.461136,314.889923 
	C133.770004,315.421906 135.469543,314.992615 136.995255,314.991028 
z"/>
<path fill="#8C7194" opacity="1.000000" stroke="none" 
	d="
M119.758682,224.999359 
	C119.904961,225.319183 119.724388,225.578064 119.243149,225.883530 
	C118.994400,225.824280 118.960754,225.658752 118.980972,225.245758 
	C119.034828,224.998276 119.517395,224.998093 119.758682,224.999359 
z"/>
<path fill="#FEF6F0" opacity="1.000000" stroke="none" 
	d="
M130.575790,307.179443 
	C130.062241,306.776855 129.548691,306.374268 128.988266,305.224915 
	C128.963562,291.316345 128.985733,278.154510 129.352051,264.959900 
	C130.753098,264.160767 131.950073,263.530121 132.844940,262.606750 
	C140.671387,254.530914 148.434753,246.393997 156.237686,238.295288 
	C158.689362,235.750671 162.234970,233.817673 161.483276,229.262268 
	C184.663864,229.169479 207.381622,229.203873 230.097626,229.022110 
	C232.337982,229.004181 234.567749,227.662384 237.149109,226.917358 
	C240.245941,222.228439 238.352432,219.029343 232.683823,219.016113 
	C214.123047,218.972824 195.562103,219.001068 177.008545,218.630981 
	C177.024429,216.207077 177.032990,214.154037 177.406311,212.050003 
	C202.695465,211.992157 227.619873,211.993896 252.544189,211.944885 
	C253.476135,211.943054 254.407104,211.447372 255.662277,211.177460 
	C256.714172,210.502258 257.442291,209.831421 258.163483,209.126236 
	C258.156525,209.091888 258.093689,209.122940 258.333435,209.046295 
	C258.660339,208.660980 258.747498,208.352310 258.889526,207.719269 
	C258.690491,206.811081 258.436554,206.227249 257.959595,205.354462 
	C255.267807,204.378998 252.805511,203.124542 250.329193,203.096207 
	C231.223373,202.877457 212.114822,202.896149 193.089600,202.488998 
	C194.907074,201.497452 196.642075,200.858139 198.377060,200.218811 
	C197.981476,199.949478 197.585876,199.680145 197.190277,199.410812 
	C198.110474,197.883224 198.927521,196.280548 199.973129,194.844284 
	C201.913879,192.178436 203.988068,189.609741 206.339264,186.999603 
	C207.115341,187.000381 207.558853,187.002151 208.088654,187.169861 
	C208.444244,187.227905 208.713501,187.120026 209.452499,187.008575 
	C221.645081,187.279633 233.368225,187.678833 245.090424,187.652267 
	C246.380676,187.649338 247.665405,185.206512 248.988251,183.600815 
	C249.348129,182.867783 249.672424,182.429230 250.328552,181.941940 
	C251.777740,179.158386 251.744598,177.056641 247.594971,177.001984 
	C246.465485,176.890579 245.715149,176.788620 244.809235,176.514679 
	C244.115601,176.450043 243.577515,176.557358 242.574265,176.738052 
	C233.765091,176.748322 225.421112,176.685211 217.147644,176.307968 
	C219.461426,173.288818 224.735458,173.957291 225.446014,169.016083 
	C229.829651,169.005630 233.764832,169.228226 237.645432,168.865891 
	C238.847672,168.753647 239.901535,167.052094 241.053238,165.743683 
	C242.140991,161.728897 240.263931,159.897369 237.060211,158.600067 
	C237.947449,157.555389 238.780014,156.846634 239.615204,156.139648 
	C239.202469,154.564529 238.787094,152.987610 238.126938,150.481430 
	C240.196671,151.515564 241.268311,152.051010 241.955658,152.394424 
	C244.880249,149.730957 247.742889,147.487442 250.158829,144.836792 
	C253.615326,141.044479 256.745300,136.954544 260.359619,133.028656 
	C263.132751,135.695709 265.413574,138.490219 268.066925,140.869263 
	C269.032074,141.734604 270.885376,141.609314 272.333466,141.936020 
	C272.784424,136.282440 278.261810,134.403442 280.848358,130.394684 
	C281.430786,129.492035 280.828369,127.099762 279.954437,126.127861 
	C277.901886,123.845299 275.355438,122.006882 273.353577,119.957817 
	C281.308044,112.893280 288.881073,105.819366 296.542358,98.842331 
	C300.609802,95.138138 304.830322,91.602028 309.277527,88.272690 
	C309.382629,92.968445 309.037415,97.381187 309.027039,101.794724 
	C308.972076,125.193741 308.888550,148.593933 309.091187,171.991318 
	C309.134491,176.994766 310.321808,181.988312 310.982117,186.986420 
	C311.022949,188.705597 311.063812,190.424759 310.783875,192.351532 
	C310.008820,191.448624 309.554535,190.338120 308.719116,188.295883 
	C303.146301,194.565765 298.395782,200.490005 293.042236,205.807083 
	C283.390198,215.393402 273.278564,224.515671 263.561981,234.038940 
	C259.489685,238.030182 255.833588,242.336456 249.281891,241.227570 
	C249.101715,241.197083 248.799393,241.888229 248.425964,242.427963 
	C250.307632,242.856216 251.957932,243.231796 253.852676,243.663025 
	C251.389496,249.433258 245.761780,245.355103 242.693878,247.674149 
	C244.220352,249.043655 245.596451,250.278229 246.972534,251.512817 
	C243.812149,251.865402 240.651764,252.217987 236.852173,252.761993 
	C231.597809,255.507263 231.619034,257.533600 236.150696,262.765442 
	C232.700500,265.975128 229.207260,268.633972 226.168396,271.737701 
	C221.008759,277.007446 216.135513,282.557587 211.086121,287.602631 
	C210.824799,284.031097 209.434525,281.205597 206.035156,282.204712 
	C204.299393,282.714935 202.670547,285.718201 202.195648,287.861053 
	C201.573486,290.668396 202.139252,293.739014 201.990753,296.996613 
	C198.857224,300.528076 195.927002,303.759369 192.528442,306.993317 
	C171.565338,307.057159 151.070572,307.118317 130.575790,307.179443 
M158.520813,293.810516 
	C158.694168,296.744385 159.521378,299.203156 163.105881,299.033051 
	C166.782043,298.858643 167.099258,296.174561 167.062439,293.322968 
	C167.036652,291.326263 167.035767,289.329224 167.016403,287.332397 
	C166.990814,284.692383 166.736938,282.164581 163.265533,281.990662 
	C159.773071,281.815704 158.507736,283.759369 158.335678,287.567810 
	C158.406967,289.368500 158.478256,291.169159 158.520813,293.810516 
M144.854095,296.489349 
	C144.865768,292.662628 144.877457,288.835876 144.891281,284.339264 
	C143.110596,283.559021 141.145233,281.924194 139.605118,282.257019 
	C138.268341,282.545959 136.829788,284.941559 136.481216,286.622711 
	C135.955048,289.160461 136.003540,291.946136 136.459381,294.510590 
	C136.734573,296.058838 138.001175,298.232117 139.260300,298.591919 
	C140.685226,298.999176 142.600418,297.691010 144.854095,296.489349 
M262.534790,159.118088 
	C259.873932,159.147217 257.024445,158.603531 254.615173,159.396790 
	C252.862961,159.973709 251.692413,162.317200 250.262527,163.873062 
	C251.852036,165.248627 253.344910,167.649811 255.048874,167.810333 
	C260.492340,168.323120 266.050659,168.361359 271.484985,167.804932 
	C273.284393,167.620712 274.842377,165.078705 276.510742,163.614716 
	C274.836578,162.121826 273.382202,159.920258 271.432556,159.315628 
	C269.002014,158.561844 266.163147,159.124588 262.534790,159.118088 
M185.410080,281.986328 
	C183.961609,282.574371 181.337326,283.035614 181.257980,283.771301 
	C180.789398,288.116089 180.335114,292.620697 181.042862,296.877472 
	C181.500854,299.632202 186.271561,299.877380 188.089340,297.647675 
	C190.256088,294.989929 188.980957,284.461792 185.410080,281.986328 
z"/>
<path fill="#FAEEDE" opacity="1.000000" stroke="none" 
	d="
M175.907974,128.981522 
	C177.269684,125.986221 179.673035,123.036308 179.805878,119.987473 
	C180.283173,109.031746 179.993500,98.042603 179.993698,87.066093 
	C179.993729,85.266197 179.993683,83.466309 179.993683,80.827965 
	C200.312576,80.827965 220.184616,80.827965 240.480469,81.233437 
	C232.822235,89.882622 224.811874,98.199074 216.589035,106.299858 
	C215.186066,107.681999 212.873962,108.141312 210.628876,108.983940 
	C207.497040,106.429550 204.718185,103.918159 202.291473,101.725006 
	C199.626740,104.120697 196.860245,106.340843 194.488205,108.923279 
	C193.875122,109.590744 194.000687,111.798790 194.649826,112.600449 
	C196.531570,114.924316 198.851822,116.893105 200.994965,119.366440 
	C200.761871,120.513252 200.772491,121.527672 200.270615,122.042236 
	C189.208908,133.384155 178.110062,144.690262 166.935898,155.921173 
	C166.235657,156.624985 164.832901,156.590500 163.807404,157.019913 
	C162.513199,157.561829 161.270844,158.227509 159.626526,158.924408 
	C157.784729,159.647507 156.322525,160.286011 154.687424,161.236176 
	C154.727890,163.343689 154.941238,165.139572 154.960999,167.038757 
	C154.967941,167.330917 155.168457,167.519775 155.447021,167.619507 
	C155.525055,167.530365 155.755676,167.476044 155.494827,167.766083 
	C148.086563,174.940857 140.973343,181.861755 133.761948,188.678802 
	C132.372177,189.992569 130.597656,190.899368 129.000717,191.525635 
	C129.001556,174.231110 129.137634,157.403046 128.908890,140.579941 
	C128.850952,136.320267 129.797714,134.743591 134.386612,134.887817 
	C145.371094,135.233017 156.375351,135.087357 167.367355,134.895416 
	C168.875992,134.869095 170.360291,133.449753 171.876160,132.479401 
	C171.896439,132.283478 171.945984,131.892670 171.945984,131.892670 
	C172.119583,131.861023 172.293167,131.829391 173.059586,131.817856 
	C174.404266,130.885803 175.156128,129.933655 175.907974,128.981522 
z"/>
<path fill="#FFF7EF" opacity="1.000000" stroke="none" 
	d="
M266.985565,80.961884 
	C275.352203,80.914597 283.718811,80.867302 292.499939,81.224426 
	C285.428955,89.433090 278.027161,97.319778 270.437805,105.021713 
	C259.780426,115.837219 249.021713,126.553879 238.226654,137.232239 
	C234.270187,141.145935 230.086472,144.829849 226.006424,148.618591 
	C225.751404,148.381561 225.496368,148.144531 225.241348,147.907486 
	C225.064682,149.361710 224.888000,150.815933 224.725052,152.157150 
	C221.782944,153.446014 219.041534,154.646973 216.398987,155.804611 
	C217.423813,157.031525 218.212036,157.975159 218.534973,158.984497 
	C208.710632,159.012985 199.351532,158.975754 190.072144,158.572052 
	C192.407455,156.744690 195.812927,156.551025 195.866882,152.640289 
	C195.874603,152.079849 197.656357,151.609100 198.532333,150.978989 
	C199.646423,150.177597 200.841003,149.393600 201.698639,148.352997 
	C202.890274,146.907150 203.557388,144.981583 204.871384,143.691574 
	C214.525009,134.213989 224.363724,124.924416 233.985443,115.415062 
	C242.193375,107.303017 250.231812,99.017647 258.258850,90.725327 
	C261.292389,87.591507 264.083771,84.223267 266.985565,80.961884 
z"/>
<path fill="#F4D399" opacity="1.000000" stroke="none" 
	d="
M299.268524,228.873199 
	C302.916260,236.815445 306.676453,244.708923 310.152618,252.725571 
	C311.420105,255.648651 313.028534,257.033752 316.369843,257.271088 
	C325.450104,257.916168 334.499847,258.995148 343.558594,259.932190 
	C344.650909,260.045166 345.724121,260.342834 348.241821,260.836243 
	C343.474182,265.137268 339.544830,268.707764 335.586365,272.245605 
	C331.998413,275.452301 328.412170,278.662415 324.762482,281.798065 
	C321.823273,284.323303 321.028931,287.018982 322.103302,291.019928 
	C324.193054,298.802368 325.556030,306.783417 327.098511,314.705841 
	C327.346222,315.978088 326.964996,317.372772 326.878296,318.654846 
	C317.510162,312.912659 308.571075,307.433472 299.241669,301.513184 
	C298.524231,300.054413 297.930389,299.040466 297.916138,298.018433 
	C297.854584,293.611572 297.999817,289.202393 298.002960,284.794006 
	C298.015259,267.491852 297.974152,250.189590 298.053467,232.887817 
	C298.059662,231.547791 298.845215,230.211319 299.268524,228.873199 
z"/>
<path fill="#F7E1B1" opacity="1.000000" stroke="none" 
	d="
M299.201691,228.545486 
	C298.845215,230.211319 298.059662,231.547791 298.053467,232.887817 
	C297.974152,250.189590 298.015259,267.491852 298.002960,284.794006 
	C297.999817,289.202393 297.854584,293.611572 297.916138,298.018433 
	C297.930389,299.040466 298.524231,300.054413 298.904785,301.374329 
	C293.066681,304.971008 287.121002,308.173401 281.303101,311.593140 
	C277.602631,313.768341 274.133057,316.334259 270.457886,318.556244 
	C269.803650,318.951752 268.649323,318.520203 267.631989,318.037842 
	C267.538025,317.605133 267.593323,317.175537 267.593323,317.175537 
	C270.059875,307.608154 272.853821,298.104614 274.742554,288.424500 
	C275.168030,286.243896 272.942841,282.946442 271.054443,281.036591 
	C266.876007,276.810608 262.136200,273.139709 257.175354,268.842834 
	C256.180511,268.240234 255.635666,268.037140 255.090805,267.834045 
	C253.301193,265.988983 251.511581,264.143921 249.434418,261.805359 
	C249.177948,260.912079 249.209045,260.512238 249.240143,260.112427 
	C251.628098,259.906342 254.016068,259.700256 257.106873,259.289124 
	C258.870941,259.020569 259.932159,258.957092 260.993378,258.893616 
	C267.918213,258.309753 274.872955,257.941925 281.747040,256.991180 
	C283.480530,256.751404 285.623871,254.971512 286.417847,253.335800 
	C288.350494,249.354279 289.602081,245.042145 291.058289,240.484070 
	C290.988617,240.104965 291.099091,240.153870 291.099091,240.153870 
	C292.757782,236.397003 294.319031,232.591782 296.142914,228.916916 
	C296.604980,227.985870 297.272675,224.567093 299.201691,228.545486 
z"/>
<path fill="#F9ECE0" opacity="1.000000" stroke="none" 
	d="
M211.141907,287.989899 
	C216.135513,282.557587 221.008759,277.007446 226.168396,271.737701 
	C229.207260,268.633972 232.700500,265.975128 236.415222,262.908936 
	C237.224213,262.777405 237.607361,262.853119 237.990524,262.928864 
	C238.431534,263.243713 238.872543,263.558594 239.617432,264.211487 
	C239.921310,264.549469 240.063614,264.999207 240.063614,264.999207 
	C244.547760,269.148956 249.031891,273.298706 254.048386,277.807251 
	C258.385956,282.127014 262.191132,286.087952 265.815613,290.250732 
	C265.561462,290.973145 265.488068,291.493774 265.266418,292.307495 
	C265.000916,293.022156 264.883728,293.443756 264.766541,293.865356 
	C264.119507,296.634399 263.472473,299.403473 262.760742,302.703125 
	C262.696014,303.233734 262.720306,303.507965 262.720306,303.507965 
	C262.204315,304.747192 261.688293,305.986389 260.740234,307.563232 
	C259.866364,307.977264 259.424561,308.053619 258.982758,308.130005 
	C258.982758,308.130005 259.023224,307.959869 259.011963,307.531616 
	C258.545807,306.590851 258.024872,305.593384 257.646851,305.644897 
	C255.289764,305.966125 252.966888,306.923401 250.628525,306.936676 
	C231.418457,307.045776 212.207489,306.993744 192.996780,306.990631 
	C195.927002,303.759369 198.857224,300.528076 202.282837,297.223450 
	C204.656357,297.667328 206.983887,299.096893 208.290298,298.453400 
	C209.685226,297.766327 210.387985,295.193939 210.886597,293.310516 
	C211.330963,291.632080 211.083847,289.770599 211.141907,287.989899 
M223.988190,293.180664 
	C223.870071,296.092377 224.593811,298.888428 227.913635,298.860291 
	C229.517899,298.846710 232.194138,297.024567 232.482147,295.628662 
	C233.166702,292.310913 233.123749,288.686584 232.525681,285.337769 
	C232.286240,283.997131 229.677994,282.023621 228.394501,282.194122 
	C226.809219,282.404663 224.848877,284.298370 224.207535,285.921844 
	C223.472626,287.782104 224.006821,290.143677 223.988190,293.180664 
M254.783936,287.041290 
	C254.444611,283.839966 252.938797,281.049042 249.541489,282.232025 
	C247.856735,282.818695 246.683990,285.952087 246.047989,288.155090 
	C245.474701,290.140839 245.417542,292.625000 246.117630,294.526764 
	C246.766037,296.288177 248.777374,298.808411 250.082245,298.746704 
	C251.691193,298.670593 253.875092,296.538666 254.557388,294.802612 
	C255.350098,292.785583 254.784546,290.234741 254.783936,287.041290 
z"/>
<path fill="#FAEFE0" opacity="1.000000" stroke="none" 
	d="
M219.000244,158.918793 
	C218.212036,157.975159 217.423813,157.031525 216.398987,155.804611 
	C219.041534,154.646973 221.782944,153.446014 224.725052,152.157150 
	C224.888000,150.815933 225.064682,149.361710 225.241348,147.907486 
	C225.496368,148.144531 225.751404,148.381561 226.006424,148.618591 
	C230.086472,144.829849 234.270187,141.145935 238.226654,137.232239 
	C249.021713,126.553879 259.780426,115.837219 270.437805,105.021713 
	C278.027161,97.319778 285.428955,89.433090 292.966553,81.286880 
	C297.279266,80.904030 301.556366,80.632156 305.792389,80.934914 
	C307.508148,81.057549 309.134338,82.433403 310.508545,83.689774 
	C309.804474,85.423721 309.393127,86.706886 308.981750,87.990051 
	C304.830322,91.602028 300.609802,95.138138 296.542358,98.842331 
	C288.881073,105.819366 281.308044,112.893280 273.344177,119.600143 
	C272.073151,117.892044 271.156281,116.510719 270.592712,115.661674 
	C265.676819,120.662903 261.165863,125.252190 257.042725,129.446899 
	C258.040771,130.637329 259.027740,131.814529 260.014709,132.991699 
	C256.745300,136.954544 253.615326,141.044479 250.158829,144.836792 
	C247.742889,147.487442 244.880249,149.730957 241.955658,152.394424 
	C241.268311,152.051010 240.196671,151.515564 238.126938,150.481430 
	C238.787094,152.987610 239.202469,154.564529 239.615204,156.139648 
	C238.780014,156.846634 237.947449,157.555389 236.592987,158.637299 
	C230.380814,158.979889 224.690521,158.949341 219.000244,158.918793 
z"/>
<path fill="#F8ECDF" opacity="1.000000" stroke="none" 
	d="
M247.297943,251.696320 
	C245.596451,250.278229 244.220352,249.043655 242.693878,247.674149 
	C245.761780,245.355103 251.389496,249.433258 253.852676,243.663025 
	C251.957932,243.231796 250.307632,242.856216 248.425964,242.427963 
	C248.799393,241.888229 249.101715,241.197083 249.281891,241.227570 
	C255.833588,242.336456 259.489685,238.030182 263.561981,234.038940 
	C273.278564,224.515671 283.390198,215.393402 293.042236,205.807083 
	C298.395782,200.490005 303.146301,194.565765 308.719116,188.295883 
	C309.554535,190.338120 310.008820,191.448624 310.726654,192.778198 
	C311.039429,198.021484 311.088654,203.045715 310.806274,208.742950 
	C310.647949,210.610352 310.821198,211.804764 310.994446,212.999161 
	C310.994446,218.069595 310.994446,223.140030 310.994446,228.210449 
	C310.693268,228.299301 310.392090,228.388138 310.090912,228.476974 
	C307.867645,223.233719 305.870544,217.876480 303.313080,212.801651 
	C302.246063,210.684448 299.986664,209.168167 298.269409,207.378647 
	C296.556976,209.216309 294.189423,210.768723 293.243927,212.940292 
	C288.806519,223.131927 284.505554,233.401108 280.703949,243.842133 
	C279.259369,247.809662 276.685455,249.461212 273.144714,249.827744 
	C264.657715,250.706253 256.132904,251.219284 247.297943,251.696320 
z"/>
<path fill="#FEF6EF" opacity="1.000000" stroke="none" 
	d="
M210.981857,109.026947 
	C212.873962,108.141312 215.186066,107.681999 216.589035,106.299858 
	C224.811874,98.199074 232.822235,89.882622 240.944580,81.299225 
	C245.021988,80.913437 249.059082,80.867340 253.519135,81.234901 
	C249.923630,85.987633 246.022354,90.442673 241.864426,94.643677 
	C230.148529,106.480904 218.396698,118.284485 206.518768,129.958633 
	C200.336456,136.034866 193.192780,141.269180 187.775726,147.934189 
	C184.765198,151.638260 182.216660,154.836014 177.356110,155.550323 
	C178.027542,156.931473 178.513351,157.930786 178.534637,158.996597 
	C172.048782,158.988678 166.027451,158.914246 160.006119,158.839813 
	C161.270844,158.227509 162.513199,157.561829 163.807404,157.019913 
	C164.832901,156.590500 166.235657,156.624985 166.935898,155.921173 
	C178.110062,144.690262 189.208908,133.384155 200.270615,122.042236 
	C200.772491,121.527672 200.761871,120.513252 201.343201,119.330444 
	C204.791595,115.628479 207.886734,112.327713 210.981857,109.026947 
z"/>
<path fill="#F9EFE0" opacity="1.000000" stroke="none" 
	d="
M178.999146,158.930099 
	C178.513351,157.930786 178.027542,156.931473 177.356110,155.550323 
	C182.216660,154.836014 184.765198,151.638260 187.775726,147.934189 
	C193.192780,141.269180 200.336456,136.034866 206.518768,129.958633 
	C218.396698,118.284485 230.148529,106.480904 241.864426,94.643677 
	C246.022354,90.442673 249.923630,85.987633 253.980377,81.296738 
	C258.035889,80.905396 262.053070,80.865891 266.527893,80.894135 
	C264.083771,84.223267 261.292389,87.591507 258.258850,90.725327 
	C250.231812,99.017647 242.193375,107.303017 233.985443,115.415062 
	C224.363724,124.924416 214.525009,134.213989 204.871384,143.691574 
	C203.557388,144.981583 202.890274,146.907150 201.698639,148.352997 
	C200.841003,149.393600 199.646423,150.177597 198.532333,150.978989 
	C197.656357,151.609100 195.874603,152.079849 195.866882,152.640289 
	C195.812927,156.551025 192.407455,156.744690 189.619202,158.640839 
	C185.724075,159.027420 182.361618,158.978760 178.999146,158.930099 
z"/>
<path fill="#BCDAF6" opacity="1.000000" stroke="none" 
	d="
M138.212845,124.160431 
	C135.974457,124.161659 134.203476,124.161659 132.432510,124.161659 
	C132.137131,123.674744 131.841766,123.187828 131.546387,122.700912 
	C144.354691,109.800957 157.163010,96.900993 170.945663,83.019714 
	C171.377548,85.715256 171.808731,87.184601 171.816986,88.656311 
	C171.870117,98.137840 171.875458,107.620224 171.804840,117.101631 
	C171.763000,122.720390 170.333725,124.106987 164.630615,124.142258 
	C155.980804,124.195763 147.330414,124.158119 138.212845,124.160431 
z"/>
<path fill="#8E6FA2" opacity="1.000000" stroke="none" 
	d="
M128.003189,310.996338 
	C130.422684,311.063385 132.846298,311.228729 135.258743,311.127594 
	C135.853973,311.102661 136.412888,310.211060 137.422775,309.361206 
	C139.571777,309.007782 141.286514,309.011017 143.093079,309.409180 
	C143.853912,310.195862 144.520493,310.924164 145.192276,310.928986 
	C155.834915,311.005096 166.478867,311.039368 177.120316,310.906799 
	C178.087479,310.894806 179.039612,309.674500 180.461975,309.011047 
	C184.950119,309.012360 188.975021,309.017975 192.999924,309.023621 
	C194.627853,309.682007 196.251663,310.900970 197.884323,310.912933 
	C216.352570,311.048309 234.822189,310.998749 253.291428,310.998749 
	C257.007904,310.998749 260.724396,310.998779 265.009521,310.998779 
	C263.258972,312.951141 262.123108,314.217987 260.752380,315.746735 
	C259.341034,315.534271 257.570190,315.267731 255.400604,315.000000 
	C215.979141,314.997742 176.956436,314.996735 137.464508,314.993378 
	C135.469543,314.992615 133.770004,315.421906 132.461136,314.889923 
	C130.737686,314.189453 129.321289,312.733521 127.886429,311.301208 
	C128.000000,311.000000 128.003189,310.996338 128.003189,310.996338 
z"/>
<path fill="#FEF2FC" opacity="1.000000" stroke="none" 
	d="
M309.277527,88.272690 
	C309.393127,86.706886 309.804474,85.423721 310.567261,84.074860 
	C311.008331,96.616310 311.156799,109.223366 311.174561,121.830605 
	C311.204712,143.241013 311.152496,164.651520 311.058502,186.524200 
	C310.321808,181.988312 309.134491,176.994766 309.091187,171.991318 
	C308.888550,148.593933 308.972076,125.193741 309.027039,101.794724 
	C309.037415,97.381187 309.382629,92.968445 309.277527,88.272690 
z"/>
<path fill="#F9E5E9" opacity="1.000000" stroke="none" 
	d="
M171.855865,132.675323 
	C170.360291,133.449753 168.875992,134.869095 167.367355,134.895416 
	C156.375351,135.087357 145.371094,135.233017 134.386612,134.887817 
	C129.797714,134.743591 128.850952,136.320267 128.908890,140.579941 
	C129.137634,157.403046 129.001556,174.231110 128.999542,191.991241 
	C129.001877,197.294357 129.005478,201.663605 129.006897,206.489731 
	C129.003754,210.629654 129.002792,214.312698 128.913544,218.202026 
	C128.662064,218.670563 128.439407,218.864548 128.093658,218.539886 
	C127.943779,215.049225 127.857513,212.008942 127.819565,208.506470 
	C127.838493,203.038666 127.809097,198.033066 127.856018,192.562836 
	C127.876755,173.057983 127.821175,154.017746 127.765594,134.977524 
	C128.050674,134.454147 128.335754,133.930771 129.268906,133.215500 
	C143.896606,132.907516 157.876236,132.791428 171.855865,132.675323 
z"/>
<path fill="#8E6FA2" opacity="1.000000" stroke="none" 
	d="
M265.996338,290.048920 
	C262.191132,286.087952 258.385956,282.127014 254.351807,277.910767 
	C254.598969,277.227783 255.075089,276.800140 255.872757,276.083649 
	C253.990692,274.712494 252.183365,273.395752 250.593445,272.237427 
	C252.093048,270.902802 253.441635,269.702576 254.940506,268.168213 
	C255.635666,268.037140 256.180511,268.240234 256.871613,268.699463 
	C255.473679,272.384796 257.060577,276.095978 260.798218,276.853241 
	C265.293365,277.763947 267.500854,280.053833 268.387634,284.702484 
	C268.815674,286.946167 270.647217,288.862976 268.629883,291.646790 
	C267.502655,291.988190 266.756317,291.976685 266.007935,291.645630 
	C266.002655,290.900360 265.999481,290.474640 265.996338,290.048920 
z"/>
<path fill="#F7E3F4" opacity="1.000000" stroke="none" 
	d="
M192.528442,306.993317 
	C212.207489,306.993744 231.418457,307.045776 250.628525,306.936676 
	C252.966888,306.923401 255.289764,305.966125 257.646851,305.644897 
	C258.024872,305.593384 258.545807,306.590851 259.028015,307.445679 
	C258.587982,307.863831 258.120575,307.939697 256.840942,308.018127 
	C214.306961,308.027252 172.585205,308.033783 130.863449,308.040314 
	C130.863449,308.040314 130.718521,307.610291 130.647156,307.394867 
	C151.070572,307.118317 171.565338,307.057159 192.528442,306.993317 
z"/>
<path fill="#8A7688" opacity="1.000000" stroke="none" 
	d="
M130.601685,308.078674 
	C172.585205,308.033783 214.306961,308.027252 256.490540,308.080566 
	C255.208771,308.428162 253.465942,308.960632 251.721436,308.966187 
	C232.460175,309.027466 213.198639,309.006927 193.468552,309.016083 
	C188.975021,309.017975 184.950119,309.012360 179.993546,309.005615 
	C167.041656,309.007721 155.021454,309.010986 143.001236,309.014252 
	C141.286514,309.011017 139.571777,309.007782 137.428528,309.009369 
	C134.792130,308.995972 132.584213,308.980499 130.376450,308.952942 
	C130.241379,308.951263 130.107513,308.853638 129.973083,308.800659 
	C130.095352,308.572784 130.217621,308.344940 130.601685,308.078674 
z"/>
<path fill="#8D6BA6" opacity="1.000000" stroke="none" 
	d="
M261.093842,258.510437 
	C259.932159,258.957092 258.870941,259.020569 257.411499,259.054810 
	C254.667313,257.278809 252.321365,255.532074 249.745026,253.613800 
	C257.550598,253.613800 265.503937,253.613800 273.457306,253.613800 
	C273.683197,254.028183 273.909088,254.442566 274.134979,254.856949 
	C272.643433,255.568558 271.217804,256.578125 269.645782,256.926117 
	C266.875763,257.539368 264.016296,257.748779 261.093842,258.510437 
z"/>
<path fill="#927897" opacity="1.000000" stroke="none" 
	d="
M171.876160,132.479401 
	C157.876236,132.791428 143.896606,132.907516 129.448822,132.976593 
	C129.960983,132.288452 130.940674,131.091339 131.921722,131.090225 
	C145.061661,131.075150 158.201782,131.227097 171.643921,131.615112 
	C171.945984,131.892670 171.896439,132.283478 171.876160,132.479401 
z"/>
<path fill="#9D84A0" opacity="1.000000" stroke="none" 
	d="
M127.473282,134.983154 
	C127.821175,154.017746 127.876755,173.057983 127.659698,192.555542 
	C127.387062,193.012894 126.993759,193.000061 126.993759,193.000061 
	C126.662971,174.630325 126.332191,156.260590 126.002258,137.113831 
	C126.005707,135.894791 126.008293,135.452805 126.010880,135.010803 
	C126.010887,135.010803 126.002296,135.001373 126.006668,135.006149 
	C126.401009,135.003555 126.790985,134.996170 127.473282,134.983154 
z"/>
<path fill="#8E6FA2" opacity="1.000000" stroke="none" 
	d="
M263.013306,326.562042 
	C263.537231,324.346161 264.060883,322.484192 265.056335,318.944672 
	C267.558350,321.529297 269.182251,323.206818 270.806152,324.884369 
	C268.208435,325.561554 265.610748,326.238739 263.013306,326.562042 
z"/>
<path fill="#8D6BA6" opacity="1.000000" stroke="none" 
	d="
M291.047119,240.102448 
	C286.292389,244.211624 286.292389,244.211624 283.468292,242.889847 
	C284.997284,240.503830 286.551697,238.078156 288.730011,234.678864 
	C289.572357,236.391388 290.300903,237.872574 291.064270,239.753815 
	C291.099091,240.153870 290.988617,240.104965 291.047119,240.102448 
z"/>
<path fill="#8C7194" opacity="1.000000" stroke="none" 
	d="
M237.958405,262.584869 
	C237.607361,262.853119 237.224213,262.777405 236.576523,262.558167 
	C231.619034,257.533600 231.597809,255.507263 236.598480,252.953903 
	C237.143768,253.828918 237.303543,254.703445 237.725983,256.037781 
	C237.988632,256.497559 237.983994,256.991455 237.983994,256.991455 
	C233.963211,258.697266 238.354568,260.495575 237.958405,262.584869 
z"/>
<path fill="#8D6BA6" opacity="1.000000" stroke="none" 
	d="
M266.010010,291.965179 
	C266.756317,291.976685 267.502655,291.988190 268.622040,292.001099 
	C268.995117,294.825073 268.995117,297.647736 268.995117,300.470367 
	C268.478271,300.552856 267.961456,300.635345 267.444611,300.717834 
	C266.759094,298.589508 266.073608,296.461212 265.077332,294.099121 
	C264.883728,293.443756 265.000916,293.022156 265.415100,292.299011 
	C265.712067,291.997498 266.010010,291.965179 266.010010,291.965179 
z"/>
<path fill="#8D6BA6" opacity="1.000000" stroke="none" 
	d="
M280.641907,254.545349 
	C277.840027,249.929947 282.498291,249.682220 283.803314,247.484039 
	C284.343689,247.812088 284.884094,248.140137 285.424469,248.468185 
	C283.929443,250.561050 282.434448,252.653915 280.641907,254.545349 
z"/>
<path fill="#8D6BA6" opacity="1.000000" stroke="none" 
	d="
M248.876556,259.958130 
	C249.209045,260.512238 249.177948,260.912079 249.164398,261.612427 
	C248.884018,262.044983 248.583176,262.295685 248.288620,262.288452 
	C246.960617,262.256012 245.634384,262.150452 244.307526,262.071198 
	C244.359177,261.293945 244.337204,259.857025 244.473907,259.841736 
	C245.805069,259.693176 247.162811,259.782379 248.876556,259.958130 
z"/>
<path fill="#8D6BA6" opacity="1.000000" stroke="none" 
	d="
M238.054016,257.350128 
	C237.983994,256.991455 237.988632,256.497559 237.987244,256.250641 
	C239.592590,256.320923 241.199326,256.638123 242.806046,256.955322 
	C242.604141,257.654541 242.402252,258.353729 242.200363,259.052917 
	C240.841583,258.604889 239.482803,258.156830 238.054016,257.350128 
z"/>
<path fill="#927897" opacity="1.000000" stroke="none" 
	d="
M175.559174,128.993774 
	C175.156128,129.933655 174.404266,130.885803 173.321198,131.777679 
	C173.730103,130.813629 174.470245,129.909836 175.559174,128.993774 
z"/>
<path fill="#8E6FA2" opacity="1.000000" stroke="none" 
	d="
M262.820251,303.857361 
	C262.720306,303.507965 262.696014,303.233734 262.755493,303.109924 
	C263.488617,303.492493 264.162231,303.998840 264.835846,304.505188 
	C264.576447,304.837189 264.317017,305.169220 264.057617,305.501221 
	C263.678467,305.069733 263.299316,304.638275 262.820251,303.857361 
z"/>
<path fill="#8D6BA6" opacity="1.000000" stroke="none" 
	d="
M240.388931,264.995544 
	C240.063614,264.999207 239.921310,264.549469 239.868347,264.319733 
	C240.632141,263.820862 241.448898,263.551697 242.265671,263.282562 
	C242.381302,263.537598 242.496948,263.792633 242.612579,264.047699 
	C241.979813,264.362427 241.347031,264.677185 240.388931,264.995544 
z"/>
<path fill="#FEF6F0" opacity="1.000000" stroke="none" 
	d="
M311.053711,212.601318 
	C310.821198,211.804764 310.647949,210.610352 310.735626,209.205200 
	C311.035400,210.064117 311.074219,211.133804 311.053711,212.601318 
z"/>
<path fill="#8D6BA6" opacity="1.000000" stroke="none" 
	d="
M291.605042,233.530243 
	C292.057220,233.646820 292.334778,233.931931 292.590454,234.235443 
	C292.597412,234.243713 292.368927,234.450302 292.250214,234.564392 
	C291.975952,234.276688 291.701691,233.988983 291.605042,233.530243 
z"/>
<path fill="#8A7688" opacity="1.000000" stroke="none" 
	d="
M259.154877,308.342529 
	C259.424561,308.053619 259.866364,307.977264 260.644714,307.885620 
	C260.429871,308.098602 259.878448,308.326843 259.154877,308.342529 
z"/>
<path fill="#8E6FA2" opacity="1.000000" stroke="none" 
	d="
M267.280975,317.140564 
	C267.593323,317.175537 267.538025,317.605133 267.464447,317.807190 
	C266.890656,317.826965 266.390472,317.644714 265.890259,317.462463 
	C266.249725,317.343506 266.609192,317.224548 267.280975,317.140564 
z"/>
<path fill="#8C7194" opacity="1.000000" stroke="none" 
	d="
M127.731308,296.996643 
	C126.821960,295.795135 125.128555,294.599426 125.119667,293.391296 
	C124.959793,271.655396 124.987671,249.917892 125.054115,228.180984 
	C125.057175,227.181061 125.798012,226.183395 126.787308,225.087494 
	C127.379379,224.990295 127.768562,224.942780 127.826187,225.411560 
	C127.832977,249.585785 127.782143,273.291229 127.731308,296.996643 
z"/>
<path fill="#FEF2FC" opacity="1.000000" stroke="none" 
	d="
M127.811592,297.435913 
	C127.782143,273.291229 127.832977,249.585785 127.921097,225.454468 
	C127.958382,225.028564 128.150650,225.108459 128.421890,225.408478 
	C128.800629,231.811798 128.908127,237.915085 129.013000,244.485764 
	C129.009567,251.632980 129.008743,258.312836 129.007919,264.992676 
	C128.985733,278.154510 128.963562,291.316345 128.902710,304.989258 
	C128.695602,305.426727 128.527176,305.353119 128.113068,305.154114 
	C127.875549,302.644257 127.883713,300.259735 127.811592,297.435913 
z"/>
<path fill="#9073A0" opacity="1.000000" stroke="none" 
	d="
M126.598442,193.091095 
	C126.993759,193.000061 127.387062,193.012894 127.583382,193.020172 
	C127.809097,198.033066 127.838493,203.038666 127.624916,208.514923 
	C127.381943,208.985596 126.991936,209.000000 126.991936,209.000000 
	C126.439522,208.690140 125.396736,208.361710 125.407661,208.073181 
	C125.595688,203.106567 125.913651,198.144897 126.598442,193.091095 
z"/>
<path fill="#9D84A0" opacity="1.000000" stroke="none" 
	d="
M126.995697,209.466858 
	C126.991936,209.000000 127.381943,208.985596 127.576599,208.977142 
	C127.857513,212.008942 127.943779,215.049225 128.039566,218.973969 
	C128.082932,221.608459 128.116791,223.358459 128.150650,225.108459 
	C128.150650,225.108459 127.958382,225.028564 127.863472,224.985672 
	C127.768562,224.942780 127.379379,224.990295 127.183304,224.997177 
	C126.991310,219.980606 126.995384,214.957153 126.995697,209.466858 
z"/>
<path fill="#9073A0" opacity="1.000000" stroke="none" 
	d="
M125.664139,135.012833 
	C126.008293,135.452805 126.005707,135.894791 126.000488,136.668396 
	C125.162621,136.698715 124.327385,136.397430 123.492142,136.096146 
	C124.100563,135.735718 124.708984,135.375290 125.664139,135.012833 
z"/>
<path fill="#8E6FA2" opacity="1.000000" stroke="none" 
	d="
M127.998322,311.001801 
	C127.486885,310.699646 126.977135,310.395691 126.467377,310.091736 
	C126.649406,309.881775 126.831436,309.671844 127.013466,309.461914 
	C127.319572,309.783875 127.625671,310.105835 127.967484,310.712067 
	C128.003189,310.996338 128.000000,311.000000 127.998322,311.001801 
z"/>
<path fill="#8C6D9E" opacity="1.000000" stroke="none" 
	d="
M244.964813,176.686646 
	C245.715149,176.788620 246.465485,176.890579 247.783905,177.290588 
	C248.900223,179.056000 249.448471,180.523346 249.996719,181.990692 
	C249.672424,182.429230 249.348129,182.867783 248.633881,183.800690 
	C246.841309,184.642471 245.442902,185.271881 244.035446,185.292801 
	C232.407669,185.465561 220.778229,185.525620 209.004700,185.493683 
	C208.522598,185.465591 208.185120,185.563599 207.427856,185.685410 
	C205.044495,185.702835 203.080902,185.696487 200.794189,185.480133 
	C197.941513,185.409332 195.411972,185.548523 192.422241,185.701416 
	C181.666183,185.766342 171.370346,185.817596 161.120041,185.812775 
	C161.165588,185.756729 161.074844,185.643402 160.804565,185.450653 
	C159.655594,185.262680 158.776917,185.267456 157.574554,185.202698 
	C156.164581,184.434082 155.078278,183.734955 153.984619,182.635941 
	C153.901108,177.305893 157.491623,177.149475 161.435455,176.924347 
	C165.280746,176.874008 168.669220,176.757675 172.515839,176.719696 
	C182.297058,176.731903 191.620132,176.665741 201.401642,176.707748 
	C206.932404,176.751297 212.004761,176.686691 217.077118,176.622101 
	C225.421112,176.685211 233.765091,176.748322 242.889923,176.830383 
	C244.102127,176.795105 244.533463,176.740875 244.964813,176.686646 
z"/>
<path fill="#8F72A0" opacity="1.000000" stroke="none" 
	d="
M178.534637,158.996597 
	C182.361618,158.978760 185.724075,159.027420 189.539490,159.007294 
	C199.351532,158.975754 208.710632,159.012985 218.534973,158.984512 
	C224.690521,158.949341 230.380814,158.979889 236.538300,158.973206 
	C240.263931,159.897369 242.140991,161.728897 240.759521,165.891541 
	C239.266159,166.849609 238.096405,167.325333 236.610718,167.545258 
	C234.648102,167.191757 233.001526,167.010361 231.354767,167.009003 
	C210.112625,166.991409 188.868698,166.850525 167.629486,167.101776 
	C162.052322,167.167755 157.160370,167.059860 154.860321,160.924530 
	C156.322525,160.286011 157.784729,159.647507 159.626526,158.924408 
	C166.027451,158.914246 172.048782,158.988678 178.534637,158.996597 
z"/>
<path fill="#F7ECDF" opacity="1.000000" stroke="none" 
	d="
M129.352051,264.959900 
	C129.008743,258.312836 129.009567,251.632980 129.382202,244.475647 
	C134.371063,239.961029 139.692093,236.471497 143.388962,231.718643 
	C146.512131,227.703339 149.774246,226.567291 154.554810,227.137817 
	C156.903976,228.009445 158.961960,228.669144 161.019943,229.328827 
	C162.234970,233.817673 158.689362,235.750671 156.237686,238.295288 
	C148.434753,246.393997 140.671387,254.530914 132.844940,262.606750 
	C131.950073,263.530121 130.753098,264.160767 129.352051,264.959900 
z"/>
<path fill="#92769C" opacity="1.000000" stroke="none" 
	d="
M255.338516,211.181824 
	C254.407104,211.447372 253.476135,211.943054 252.544189,211.944885 
	C227.619873,211.993896 202.695465,211.992157 176.960388,211.977463 
	C173.749847,212.001587 171.350021,212.047256 168.503128,212.031250 
	C165.033340,211.883652 162.010620,211.797714 159.047089,211.420105 
	C159.734924,210.752899 160.363586,210.377365 161.287811,210.295135 
	C166.163544,210.588425 170.743713,210.588425 175.323868,210.588425 
	C175.328491,210.058548 175.333115,209.528656 175.337738,208.998779 
	C170.558289,208.998779 165.778839,208.998779 160.999695,208.999390 
	C161.000000,209.000000 161.001144,209.000610 161.091675,208.603867 
	C163.012527,207.805359 164.841980,207.058075 166.673325,207.053375 
	C196.772293,206.976318 226.871506,206.992859 257.240173,206.834488 
	C257.733978,206.334869 257.958282,205.989136 258.182617,205.643417 
	C258.436554,206.227249 258.690491,206.811081 258.698944,207.845703 
	C258.230774,208.527222 258.110840,208.802689 258.093689,209.122940 
	C258.093689,209.122940 258.156525,209.091888 257.760681,209.073364 
	C256.073944,209.164169 254.783096,209.273468 253.492233,209.382782 
	C253.466934,209.683807 253.441650,209.984848 253.416351,210.285873 
	C254.057068,210.584518 254.697800,210.883163 255.338516,211.181824 
z"/>
<path fill="#FEFEFC" opacity="1.000000" stroke="none" 
	d="
M260.359589,133.028656 
	C259.027740,131.814529 258.040771,130.637329 257.042725,129.446899 
	C261.165863,125.252190 265.676819,120.662903 270.592712,115.661674 
	C271.156281,116.510719 272.073151,117.892044 272.999451,119.631042 
	C275.355438,122.006882 277.901886,123.845299 279.954437,126.127861 
	C280.828369,127.099762 281.430786,129.492035 280.848358,130.394684 
	C278.261810,134.403442 272.784424,136.282440 272.333466,141.936020 
	C270.885376,141.609314 269.032074,141.734604 268.066925,140.869263 
	C265.413574,138.490219 263.132751,135.695709 260.359589,133.028656 
z"/>
<path fill="#F9EFE0" opacity="1.000000" stroke="none" 
	d="
M206.006714,187.000610 
	C203.988068,189.609741 201.913879,192.178436 199.973129,194.844284 
	C198.927521,196.280548 198.110474,197.883224 197.190277,199.410812 
	C197.585876,199.680145 197.981476,199.949478 198.377060,200.218811 
	C196.642075,200.858139 194.907074,201.497452 192.625412,202.552811 
	C186.713593,202.920746 181.348434,202.872650 175.928894,202.509445 
	C175.354126,201.423782 174.833755,200.653198 174.313370,199.882629 
	C174.781342,200.249161 175.249298,200.615692 175.717270,200.982239 
	C179.813919,196.324356 183.910568,191.666489 188.474716,187.006958 
	C194.630386,187.003723 200.318542,187.002167 206.006714,187.000610 
z"/>
<path fill="#896F9B" opacity="1.000000" stroke="none" 
	d="
M175.983292,202.824554 
	C181.348434,202.872650 186.713593,202.920746 192.542938,202.905045 
	C212.114822,202.896149 231.223373,202.877457 250.329193,203.096207 
	C252.805511,203.124542 255.267807,204.378998 257.959595,205.354462 
	C257.958282,205.989136 257.733978,206.334869 256.993530,206.545273 
	C254.060776,205.939728 251.645508,205.068832 249.227264,205.060471 
	C221.415970,204.964203 193.604141,204.972656 165.792770,205.057281 
	C163.925476,205.062973 162.060745,205.908020 160.194824,206.362686 
	C160.463593,207.241989 160.732376,208.121307 161.001144,209.000610 
	C161.001144,209.000610 161.000000,209.000000 160.998672,209.250168 
	C160.995651,209.667496 160.993942,209.834671 160.992249,210.001831 
	C160.363586,210.377365 159.734924,210.752899 158.689575,211.433472 
	C155.601273,211.063583 153.042542,209.595474 154.381088,206.691132 
	C155.175568,204.967285 157.979355,203.386993 160.027328,203.176132 
	C165.302139,202.633087 170.659134,202.888290 175.983292,202.824554 
z"/>
<path fill="#8C7194" opacity="1.000000" stroke="none" 
	d="
M161.483276,229.262268 
	C158.961960,228.669144 156.903976,228.009445 154.495087,226.768188 
	C155.352112,224.416855 156.560013,222.647064 158.104065,220.920807 
	C159.061707,221.089203 159.683182,221.214035 160.131577,221.304108 
	C159.226624,223.102875 158.380966,224.783768 157.268738,226.994553 
	C182.352417,226.994553 206.452835,227.020996 230.552612,226.909515 
	C231.655014,226.904419 232.751678,225.658127 233.851013,224.989929 
	C232.748260,224.328705 231.705856,223.518921 230.528763,223.040543 
	C228.697891,222.296432 225.584534,224.632339 225.482605,220.588425 
	C227.884613,220.435959 229.921707,220.151489 231.863266,220.462814 
	C235.399399,221.029816 237.712830,222.830521 236.802429,226.935074 
	C234.567749,227.662384 232.337982,229.004181 230.097626,229.022110 
	C207.381622,229.203873 184.663864,229.169479 161.483276,229.262268 
z"/>
<path fill="#8F749D" opacity="1.000000" stroke="none" 
	d="
M263.017700,159.118469 
	C266.163147,159.124588 269.002014,158.561844 271.432556,159.315628 
	C273.382202,159.920258 274.836578,162.121826 276.510742,163.614716 
	C274.842377,165.078705 273.284393,167.620712 271.484985,167.804932 
	C266.050659,168.361359 260.492340,168.323120 255.048874,167.810333 
	C253.344910,167.649811 251.852036,165.248627 250.262527,163.873062 
	C251.692413,162.317200 252.862961,159.973709 254.615173,159.396790 
	C257.024445,158.603531 259.873932,159.147217 263.017700,159.118469 
z"/>
<path fill="#F2E8DC" opacity="1.000000" stroke="none" 
	d="
M217.147644,176.307968 
	C212.004761,176.686691 206.932404,176.751297 201.416687,176.340500 
	C202.656906,173.584488 204.340469,171.303864 206.490784,169.020844 
	C212.963882,169.020187 218.970200,169.021927 224.976532,169.023682 
	C224.735458,173.957291 219.461426,173.288818 217.147644,176.307968 
z"/>
<path fill="#8F749D" opacity="1.000000" stroke="none" 
	d="
M185.811371,282.069519 
	C188.980957,284.461792 190.256088,294.989929 188.089340,297.647675 
	C186.271561,299.877380 181.500854,299.632202 181.042862,296.877472 
	C180.335114,292.620697 180.789398,288.116089 181.257980,283.771301 
	C181.337326,283.035614 183.961609,282.574371 185.811371,282.069519 
z"/>
<path fill="#8F749D" opacity="1.000000" stroke="none" 
	d="
M211.086121,287.602631 
	C211.083847,289.770599 211.330963,291.632080 210.886597,293.310516 
	C210.387985,295.193939 209.685226,297.766327 208.290298,298.453400 
	C206.983887,299.096893 204.656357,297.667328 202.486145,296.923218 
	C202.139252,293.739014 201.573486,290.668396 202.195648,287.861053 
	C202.670547,285.718201 204.299393,282.714935 206.035156,282.204712 
	C209.434525,281.205597 210.824799,284.031097 211.086121,287.602631 
z"/>
<path fill="#FAEEDE" opacity="1.000000" stroke="none" 
	d="
M168.950180,212.092926 
	C171.350021,212.047256 173.749847,212.001587 176.595627,212.028458 
	C177.032990,214.154037 177.024429,216.207077 176.540466,218.633255 
	C170.379150,219.009445 164.693237,219.012497 158.730774,218.984650 
	C158.297729,218.896835 158.108368,218.876175 157.994186,218.772614 
	C157.885208,218.673798 157.762466,218.454224 157.802734,218.346313 
	C159.752274,213.122147 164.668930,213.173676 168.950180,212.092926 
z"/>
<path fill="#FEF2FC" opacity="1.000000" stroke="none" 
	d="
M206.339279,186.999619 
	C200.318542,187.002167 194.630386,187.003723 188.005295,187.003540 
	C178.379730,187.001587 169.691086,187.001404 161.012161,186.717590 
	C161.039413,186.245605 161.056961,186.057220 161.074493,185.868835 
	C171.370346,185.817596 181.666183,185.766342 192.867889,185.825180 
	C196.221619,185.853546 198.669464,185.771835 201.117325,185.690125 
	C203.080902,185.696487 205.044495,185.702835 207.756348,185.760727 
	C208.719528,185.748108 208.934402,185.683960 209.149292,185.619812 
	C220.778229,185.525620 232.407669,185.465561 244.035446,185.292801 
	C245.442902,185.271881 246.841309,184.642471 248.598297,184.095184 
	C247.665405,185.206512 246.380676,187.649338 245.090424,187.652267 
	C233.368225,187.678833 221.645081,187.279633 209.207520,187.005524 
	C208.492813,187.006042 208.002350,187.003906 208.002350,187.003906 
	C207.558853,187.002151 207.115341,187.000381 206.339279,186.999619 
z"/>
<path fill="#FEF2FC" opacity="1.000000" stroke="none" 
	d="
M159.007309,219.015549 
	C164.693237,219.012497 170.379150,219.009445 176.533142,219.004120 
	C195.562103,219.001068 214.123047,218.972824 232.683823,219.016113 
	C238.352432,219.029343 240.245941,222.228439 237.149109,226.917358 
	C237.712830,222.830521 235.399399,221.029816 231.863266,220.462814 
	C229.921707,220.151489 227.884613,220.435959 225.032761,220.418854 
	C202.455215,220.268768 180.735489,220.151627 159.011917,219.779770 
	C159.007797,219.355209 159.007553,219.185379 159.007309,219.015549 
z"/>
<path fill="#8C6D9E" opacity="1.000000" stroke="none" 
	d="
M144.889145,285.009155 
	C144.877457,288.835876 144.865768,292.662628 144.138702,296.769409 
	C141.709991,296.146057 139.028519,295.648560 138.450287,294.269287 
	C135.897079,288.179199 138.284973,285.024292 144.889145,285.009155 
z"/>
<path fill="#8C7194" opacity="1.000000" stroke="none" 
	d="
M158.726837,286.999054 
	C158.507736,283.759369 159.773071,281.815704 163.265533,281.990662 
	C166.736938,282.164581 166.990814,284.692383 167.016403,287.332397 
	C167.035767,289.329224 167.036652,291.326263 167.062439,293.322968 
	C167.099258,296.174561 166.782043,298.858643 163.105881,299.033051 
	C159.521378,299.203156 158.694168,296.744385 158.884766,293.537781 
	C160.223511,294.520782 161.198303,295.776489 162.197144,297.063141 
	C166.243164,293.089844 166.080795,287.626129 161.860107,284.154083 
	C160.837051,285.083008 159.781937,286.041016 158.726837,286.999054 
z"/>
<path fill="#9577A6" opacity="1.000000" stroke="none" 
	d="
M158.531250,287.283447 
	C159.781937,286.041016 160.837051,285.083008 161.860107,284.154083 
	C166.080795,287.626129 166.243164,293.089844 162.197144,297.063141 
	C161.198303,295.776489 160.223511,294.520782 158.899139,293.117462 
	C158.478256,291.169159 158.406967,289.368500 158.531250,287.283447 
z"/>
<path fill="#927897" opacity="1.000000" stroke="none" 
	d="
M144.890213,284.674194 
	C138.284973,285.024292 135.897079,288.179199 138.450287,294.269287 
	C139.028519,295.648560 141.709991,296.146057 143.862885,297.089081 
	C142.600418,297.691010 140.685226,298.999176 139.260300,298.591919 
	C138.001175,298.232117 136.734573,296.058838 136.459381,294.510590 
	C136.003540,291.946136 135.955048,289.160461 136.481216,286.622711 
	C136.829788,284.941559 138.268341,282.545959 139.605118,282.257019 
	C141.145233,281.924194 143.110596,283.559021 144.890213,284.674194 
z"/>
<path fill="#FEF2FC" opacity="1.000000" stroke="none" 
	d="
M225.446014,169.016083 
	C218.970200,169.021927 212.963882,169.020187 206.051788,169.012909 
	C202.443054,168.722794 199.740067,168.438187 197.499542,168.090393 
	C210.950211,167.951813 223.938431,167.876419 236.926651,167.801041 
	C238.096405,167.325333 239.266159,166.849609 240.729630,166.226044 
	C239.901535,167.052094 238.847672,168.753647 237.645432,168.865891 
	C233.764832,169.228226 229.829651,169.005630 225.446014,169.016083 
z"/>
<path fill="#FEF2FC" opacity="1.000000" stroke="none" 
	d="
M250.328552,181.941940 
	C249.448471,180.523346 248.900223,179.056000 248.163055,177.300034 
	C251.744598,177.056641 251.777740,179.158386 250.328552,181.941940 
z"/>
<path fill="#896F9B" opacity="1.000000" stroke="none" 
	d="
M255.662277,211.177460 
	C254.697800,210.883163 254.057068,210.584518 253.416351,210.285873 
	C253.441650,209.984848 253.466934,209.683807 253.492233,209.382782 
	C254.783096,209.273468 256.073944,209.164169 257.767639,209.107727 
	C257.442291,209.831421 256.714172,210.502258 255.662277,211.177460 
z"/>
<path fill="#F2E8DC" opacity="1.000000" stroke="none" 
	d="
M244.809235,176.514679 
	C244.533463,176.740875 244.102127,176.795105 243.355103,176.757004 
	C243.577515,176.557358 244.115601,176.450043 244.809235,176.514679 
z"/>
<path fill="#F9EFE0" opacity="1.000000" stroke="none" 
	d="
M208.088654,187.169846 
	C208.002350,187.003906 208.492813,187.006042 208.737793,187.009094 
	C208.713501,187.120026 208.444244,187.227905 208.088654,187.169846 
z"/>
<path fill="#896F9B" opacity="1.000000" stroke="none" 
	d="
M258.333435,209.046295 
	C258.110840,208.802689 258.230774,208.527222 258.644104,208.170074 
	C258.747498,208.352310 258.660339,208.660980 258.333435,209.046295 
z"/>
<path fill="#FEF6EF" opacity="1.000000" stroke="none" 
	d="
M160.978668,176.858337 
	C157.491623,177.149475 153.901108,177.305893 153.928772,182.975006 
	C148.447235,188.818649 143.068619,193.983109 137.557999,199.002625 
	C134.833939,201.483887 131.866440,203.697891 129.009094,206.032837 
	C129.005478,201.663605 129.001877,197.294357 128.999451,192.459518 
	C130.597656,190.899368 132.372177,189.992569 133.761948,188.678802 
	C140.973343,181.861755 148.086563,174.940857 155.780243,167.813782 
	C156.885651,167.765182 157.444794,167.958939 158.079773,168.502045 
	C161.106827,168.906738 164.058029,168.962128 166.940445,169.375366 
	C165.575256,170.165253 164.278870,170.597275 162.666809,171.064636 
	C161.911148,171.727173 161.471146,172.354355 161.023895,173.319794 
	C161.018372,174.109314 161.020065,174.560577 161.015717,175.319702 
	C160.999359,176.037827 160.989014,176.448090 160.978668,176.858337 
z"/>
<path fill="#FEFEFC" opacity="1.000000" stroke="none" 
	d="
M210.628876,108.983940 
	C207.886734,112.327713 204.791595,115.628479 201.348236,118.965233 
	C198.851822,116.893105 196.531570,114.924316 194.649826,112.600449 
	C194.000687,111.798790 193.875122,109.590744 194.488205,108.923279 
	C196.860245,106.340843 199.626740,104.120697 202.291473,101.725006 
	C204.718185,103.918159 207.497040,106.429550 210.628876,108.983940 
z"/>
<path fill="#8A7688" opacity="1.000000" stroke="none" 
	d="
M158.003922,168.152710 
	C157.444794,167.958939 156.885651,167.765182 156.041107,167.523727 
	C155.755676,167.476044 155.525055,167.530365 155.499207,167.399994 
	C155.473343,167.269608 155.154587,166.935440 155.154587,166.935440 
	C154.941238,165.139572 154.727890,163.343689 154.687424,161.236176 
	C157.160370,167.059860 162.052322,167.167755 167.629486,167.101776 
	C188.868698,166.850525 210.112625,166.991409 231.354767,167.009003 
	C233.001526,167.010361 234.648102,167.191757 236.610718,167.545258 
	C223.938431,167.876419 210.950211,167.951813 197.079926,168.025330 
	C194.786377,168.066605 193.374863,168.109756 191.501038,168.089401 
	C180.027100,168.068161 169.015518,168.110443 158.003922,168.152710 
z"/>
<path fill="#FEF6EF" opacity="1.000000" stroke="none" 
	d="
M154.960999,167.038757 
	C155.154587,166.935440 155.473343,167.269608 155.421173,167.489120 
	C155.168457,167.519775 154.967941,167.330917 154.960999,167.038757 
z"/>
<path fill="#927897" opacity="1.000000" stroke="none" 
	d="
M223.988922,292.734070 
	C224.006821,290.143677 223.472626,287.782104 224.207535,285.921844 
	C224.848877,284.298370 226.809219,282.404663 228.394501,282.194122 
	C229.677994,282.023621 232.286240,283.997131 232.525681,285.337769 
	C233.123749,288.686584 233.166702,292.310913 232.482147,295.628662 
	C232.194138,297.024567 229.517899,298.846710 227.913635,298.860291 
	C224.593811,298.888428 223.870071,296.092377 223.988922,292.734070 
M227.761353,285.819794 
	C226.946487,288.666656 226.131622,291.513550 225.143539,294.965607 
	C227.312347,294.846954 228.983780,294.755493 230.983932,294.646057 
	C230.983932,291.792999 231.188766,289.469177 230.864136,287.221863 
	C230.761383,286.510529 229.244614,286.003418 227.761353,285.819794 
z"/>
<path fill="#927897" opacity="1.000000" stroke="none" 
	d="
M254.796204,287.478424 
	C254.784546,290.234741 255.350098,292.785583 254.557388,294.802612 
	C253.875092,296.538666 251.691193,298.670593 250.082245,298.746704 
	C248.777374,298.808411 246.766037,296.288177 246.117630,294.526764 
	C245.417542,292.625000 245.474701,290.140839 246.047989,288.155090 
	C246.683990,285.952087 247.856735,282.818695 249.541489,282.232025 
	C252.938797,281.049042 254.444611,283.839966 254.796204,287.478424 
M252.721664,286.681488 
	C249.730515,283.698914 248.189331,284.331085 247.986633,288.538696 
	C247.915405,290.016968 247.389328,291.526550 247.588654,292.949280 
	C247.777618,294.298157 248.644241,295.552063 249.212875,296.847748 
	C250.436523,295.811890 252.321075,294.983978 252.727875,293.691071 
	C253.328522,291.782288 252.877960,289.542694 252.721664,286.681488 
z"/>
<path fill="#9073A0" opacity="1.000000" stroke="none" 
	d="
M266.007935,291.645630 
	C266.010010,291.965179 265.712067,291.997498 265.563354,292.005951 
	C265.488068,291.493774 265.561462,290.973145 265.815582,290.250732 
	C265.999481,290.474640 266.002655,290.900360 266.007935,291.645630 
z"/>
<path fill="#9073A0" opacity="1.000000" stroke="none" 
	d="
M143.093079,309.409180 
	C155.021454,309.010986 167.041656,309.007721 179.530304,309.009888 
	C179.039612,309.674500 178.087479,310.894806 177.120316,310.906799 
	C166.478867,311.039368 155.834915,311.005096 145.192276,310.928986 
	C144.520493,310.924164 143.853912,310.195862 143.093079,309.409180 
z"/>
<path fill="#FEF6EF" opacity="1.000000" stroke="none" 
	d="
M158.730774,218.984650 
	C159.007553,219.185379 159.007797,219.355209 158.779892,219.885178 
	C158.290466,220.455963 158.029190,220.666626 157.767914,220.877274 
	C156.560013,222.647064 155.352112,224.416855 154.203934,226.556274 
	C149.774246,226.567291 146.512131,227.703339 143.388962,231.718643 
	C139.692093,236.471497 134.371063,239.961029 129.384827,244.008270 
	C128.908127,237.915085 128.800629,231.811798 128.421890,225.408478 
	C128.116791,223.358459 128.082932,221.608459 128.103180,219.424362 
	C128.439407,218.864548 128.662064,218.670563 129.260712,218.170197 
	C130.147644,217.737732 130.697845,217.649246 131.036346,217.333664 
	C140.840988,208.192383 150.644470,199.049423 160.361618,189.815704 
	C160.942352,189.263870 160.805435,187.956833 161.002441,187.001221 
	C169.691086,187.001404 178.379730,187.001587 187.537796,187.005203 
	C183.910568,191.666489 179.813919,196.324356 175.717270,200.982239 
	C175.249298,200.615692 174.781342,200.249161 174.313370,199.882629 
	C174.833755,200.653198 175.354126,201.423782 175.928894,202.509460 
	C170.659134,202.888290 165.302139,202.633087 160.027328,203.176132 
	C157.979355,203.386993 155.175568,204.967285 154.381088,206.691132 
	C153.042542,209.595474 155.601273,211.063583 158.630386,211.725143 
	C162.010620,211.797714 165.033340,211.883652 168.503128,212.031250 
	C164.668930,213.173676 159.752274,213.122147 157.802734,218.346313 
	C157.762466,218.454224 157.885208,218.673798 157.994186,218.772614 
	C158.108368,218.876175 158.297729,218.896835 158.730774,218.984650 
z"/>
<path fill="#FAEFE0" opacity="1.000000" stroke="none" 
	d="
M161.012161,186.717590 
	C160.805435,187.956833 160.942352,189.263870 160.361618,189.815704 
	C150.644470,199.049423 140.840988,208.192383 131.036346,217.333664 
	C130.697845,217.649246 130.147644,217.737732 129.348984,217.963898 
	C129.002792,214.312698 129.003754,210.629654 129.006897,206.489731 
	C131.866440,203.697891 134.833939,201.483887 137.557999,199.002625 
	C143.068619,193.983109 148.447235,188.818649 153.936127,183.374893 
	C155.078278,183.734955 156.164581,184.434082 157.834518,185.419693 
	C159.303711,185.685257 160.189270,185.664337 161.074844,185.643402 
	C161.074844,185.643402 161.165588,185.756729 161.120041,185.812775 
	C161.056961,186.057220 161.039413,186.245605 161.012161,186.717590 
z"/>
<path fill="#FEF6F0" opacity="1.000000" stroke="none" 
	d="
M191.963364,168.152893 
	C193.374863,168.109756 194.786377,168.066605 196.617493,168.088531 
	C199.740067,168.438187 202.443054,168.722794 205.585022,169.015320 
	C204.340469,171.303864 202.656906,173.584488 200.958282,176.232346 
	C191.620132,176.665741 182.297058,176.731903 172.504303,176.446686 
	C172.021667,175.729935 172.008698,175.364563 172.375580,174.994965 
	C176.495300,174.649170 177.182968,172.141068 177.463287,169.009338 
	C182.606796,168.721008 187.285080,168.436951 191.963364,168.152893 
z"/>
<path fill="#F2E8DC" opacity="1.000000" stroke="none" 
	d="
M171.995728,174.999191 
	C172.008698,175.364563 172.021667,175.729935 172.046173,176.368317 
	C168.669220,176.757675 165.280746,176.874008 161.435455,176.924347 
	C160.989014,176.448090 160.999359,176.037827 161.471283,175.317078 
	C165.287155,175.004105 168.641434,175.001648 171.995728,174.999191 
z"/>
<path fill="#C4B2BF" opacity="1.000000" stroke="none" 
	d="
M200.794189,185.480133 
	C198.669464,185.771835 196.221619,185.853546 193.328094,185.811493 
	C195.411972,185.548523 197.941513,185.409332 200.794189,185.480133 
z"/>
<path fill="#C4B2BF" opacity="1.000000" stroke="none" 
	d="
M160.804565,185.450653 
	C160.189270,185.664337 159.303711,185.685257 158.158173,185.489197 
	C158.776917,185.267456 159.655594,185.262680 160.804565,185.450653 
z"/>
<path fill="#C4B2BF" opacity="1.000000" stroke="none" 
	d="
M209.004700,185.493698 
	C208.934402,185.683960 208.719528,185.748108 208.176132,185.736938 
	C208.185120,185.563599 208.522598,185.465591 209.004700,185.493698 
z"/>
<path fill="#8D6BA6" opacity="1.000000" stroke="none" 
	d="
M161.091675,208.603867 
	C160.732376,208.121307 160.463593,207.241989 160.194824,206.362686 
	C162.060745,205.908020 163.925476,205.062973 165.792770,205.057281 
	C193.604141,204.972656 221.415970,204.964203 249.227264,205.060471 
	C251.645508,205.068832 254.060776,205.939728 256.724060,206.699173 
	C226.871506,206.992859 196.772293,206.976318 166.673325,207.053375 
	C164.841980,207.058075 163.012527,207.805359 161.091675,208.603867 
z"/>
<path fill="#8D6BA6" opacity="1.000000" stroke="none" 
	d="
M161.287811,210.295135 
	C160.993942,209.834671 160.995651,209.667496 160.998367,209.249557 
	C165.778839,208.998779 170.558289,208.998779 175.337738,208.998779 
	C175.333115,209.528656 175.328491,210.058548 175.323868,210.588425 
	C170.743713,210.588425 166.163544,210.588425 161.287811,210.295135 
z"/>
<path fill="#9577A6" opacity="1.000000" stroke="none" 
	d="
M158.104065,220.920807 
	C158.029190,220.666626 158.290466,220.455963 158.783752,220.139893 
	C180.735489,220.151627 202.455215,220.268768 224.624786,220.555496 
	C225.584534,224.632339 228.697891,222.296432 230.528763,223.040543 
	C231.705856,223.518921 232.748260,224.328705 233.851013,224.989929 
	C232.751678,225.658127 231.655014,226.904419 230.552612,226.909515 
	C206.452835,227.020996 182.352417,226.994553 157.268738,226.994553 
	C158.380966,224.783768 159.226624,223.102875 160.131577,221.304108 
	C159.683182,221.214035 159.061707,221.089203 158.104065,220.920807 
z"/>
<path fill="#FAEFE0" opacity="1.000000" stroke="none" 
	d="
M172.375565,174.994965 
	C168.641434,175.001648 165.287155,175.004105 161.477295,175.009201 
	C161.020065,174.560577 161.018372,174.109314 161.337509,173.281876 
	C162.099731,172.280243 162.541107,171.654770 162.982483,171.029297 
	C164.278870,170.597275 165.575256,170.165253 167.393494,169.371521 
	C170.942917,169.011063 173.970490,169.012344 176.998077,169.013611 
	C177.182968,172.141068 176.495300,174.649170 172.375565,174.994965 
z"/>
<path fill="#FEF2FC" opacity="1.000000" stroke="none" 
	d="
M177.463287,169.009338 
	C173.970490,169.012344 170.942917,169.011063 167.462280,169.013641 
	C164.058029,168.962128 161.106827,168.906738 158.079773,168.502045 
	C169.015518,168.110443 180.027100,168.068161 191.501038,168.089386 
	C187.285080,168.436951 182.606796,168.721008 177.463287,169.009338 
z"/>
<path fill="#F2E8DC" opacity="1.000000" stroke="none" 
	d="
M162.666809,171.064636 
	C162.541107,171.654770 162.099731,172.280243 161.344727,172.943604 
	C161.471146,172.354355 161.911148,171.727173 162.666809,171.064636 
z"/>
<path fill="#8D6BA6" opacity="1.000000" stroke="none" 
	d="
M228.068146,285.611328 
	C229.244614,286.003418 230.761383,286.510529 230.864136,287.221863 
	C231.188766,289.469177 230.983932,291.792999 230.983932,294.646057 
	C228.983780,294.755493 227.312347,294.846954 225.143539,294.965607 
	C226.131622,291.513550 226.946487,288.666656 228.068146,285.611328 
z"/>
<path fill="#8D6BA6" opacity="1.000000" stroke="none" 
	d="
M252.798355,287.062744 
	C252.877960,289.542694 253.328522,291.782288 252.727875,293.691071 
	C252.321075,294.983978 250.436523,295.811890 249.212875,296.847748 
	C248.644241,295.552063 247.777618,294.298157 247.588654,292.949280 
	C247.389328,291.526550 247.915405,290.016968 247.986633,288.538696 
	C248.189331,284.331085 249.730515,283.698914 252.798355,287.062744 
z"/>
</svg>