<svg width="23" height="21" viewBox="0 0 23 21" fill="none" xmlns="http://www.w3.org/2000/svg">
<g clip-path="url(#clip0_4902_24)">
<path d="M9.62748 12.3138H10.6275V11.3138H9.62748V12.3138ZM1.49575 19.0313L0.788642 19.7384L2.20286 21.1526L2.90996 20.4455L1.49575 19.0313ZM10.6275 20.799V12.3138H8.62748V20.799H10.6275ZM9.62748 11.3138H1.1422V13.3138H9.62748V11.3138ZM8.92037 11.6066L1.49575 19.0313L2.90996 20.4455L10.3346 13.0209L8.92037 11.6066Z" fill="white"/>
<path d="M13.3137 9.62741H12.3137V10.6274H13.3137V9.62741ZM21.4454 2.90989L22.1525 2.20279L20.7383 0.788572L20.0312 1.49568L21.4454 2.90989ZM12.3137 1.14213V9.62741H14.3137V1.14213H12.3137ZM13.3137 10.6274H21.799V8.62741H13.3137V10.6274ZM14.0208 10.3345L21.4454 2.90989L20.0312 1.49568L12.6066 8.9203L14.0208 10.3345Z" fill="white"/>
</g>
<defs>
<clipPath id="clip0_4902_24">
<rect width="23" height="21" fill="white"/>
</clipPath>
</defs>
</svg>
