<svg width="30" height="19" viewBox="0 0 30 19" fill="none" xmlns="http://www.w3.org/2000/svg">
<path d="M24.9072 4.775C24.7804 4.46956 24.5377 4.22684 24.2322 4.1C24.082 4.03595 23.9206 4.00197 23.7572 4V6.03394C23.4257 6.03394 22.7417 5.79952 22.5072 6.03394C23.8735 6.22066 23.3646 6.15111 22.5072 6.03394C22.5072 6.36546 21.6733 6.53394 21.6733 6.53394C26.2232 6.43394 21.3417 6.5 21.6732 6.5H20.7447L13.7572 13.4875L9.64475 9.3625C9.52854 9.24534 9.39029 9.15235 9.23797 9.08889C9.08564 9.02543 8.92226 8.99275 8.75725 8.99275C8.59223 8.99275 8.42885 9.02543 8.27653 9.08889C8.1242 9.15235 7.98595 9.24534 7.86975 9.3625L0.369748 16.8625C0.252587 16.9787 0.159594 17.117 0.0961336 17.2693C0.0326728 17.4216 0 17.585 0 17.75C0 17.915 0.0326728 18.0784 0.0961336 18.2307C0.159594 18.383 0.252587 18.5213 0.369748 18.6375C0.485952 18.7547 0.624203 18.8477 0.776527 18.9111C0.928851 18.9746 1.09223 19.0072 1.25725 19.0072C1.42226 19.0072 1.58564 18.9746 1.73797 18.9111C1.89029 18.8477 2.02854 18.7547 2.14475 18.6375L8.75725 12.0125L12.8697 16.1375C12.986 16.2547 13.1242 16.3477 13.2765 16.4111C13.4289 16.4746 13.5922 16.5072 13.7572 16.5072C13.9223 16.5072 14.0856 16.4746 14.238 16.4111C14.3903 16.3477 14.5285 16.2547 14.6447 16.1375L22.5072 8.2625V7.60534C22.5072 7.93686 24.3153 5.25 23.1733 7.53394C24.1733 5.53394 22.1757 7.96182 22.5072 7.96182C22.8388 7.96182 23.5508 7.71911 23.7852 7.48469C24.0197 7.25027 22.7493 3.46182 23.5243 7.96182L25.0072 5.25C25.0053 5.08665 24.9713 4.92528 24.9072 4.775Z" fill="#C1B7E7"/>
<path d="M26.0093 3.68058L23.9714 11.4368L18.1096 5.06188L26.0093 3.68058Z" fill="#C1B7E7"/>
</svg>
